<?xml version="1.0" encoding="utf-8"?>
<!-- Generator: Adobe Illustrator 19.1.0, SVG Export Plug-In . SVG Version: 6.00 Build 0)  -->
<svg version="1.1" id="Ebene_7" xmlns="http://www.w3.org/2000/svg" xmlns:xlink="http://www.w3.org/1999/xlink" x="0px" y="0px"
	 viewBox="0 0 1456.3 1467.9" style="enable-background:new 0 0 1456.3 1467.9;" xml:space="preserve">
<style type="text/css">
	.st0{fill:#85B9C9;}
	.st1{fill:#73777B;}
	.st2{fill:#474B4E;}
	.st3{fill:#C6DCE4;}
	.st4{fill:#E9F1F5;}
	.st5{fill:#007F97;}
	.st6{fill:none;}
	.st7{fill:#D2E3EA;}
	.st8{fill:#54A6BA;}
	.st9{fill:#76B3C4;}
	.st10{fill:#A0C7D4;}
	.st11{fill:#FFFFFF;}
	.st12{fill:#7C7C7B;}
</style>
<g>
	<path class="st0" d="M433.4,721.5L295.8,592.8l142-211.7c8.2-12.2,6.3-28.6-4.4-38.6l-32.2-30.1c-6.4-6-15.2-8.9-23.9-7.9
		c-8.7,1-16.6,5.8-21.5,13.1L167.3,598.4c-8.2,12.2-6.3,28.6,4.4,38.6l188.4,176.3c5.6,5.2,12.9,8.1,20.5,8.1c1.1,0,2.3-0.1,3.4-0.2
		c8.7-1,16.6-5.8,21.5-13.1l32.2-48C446,747.9,444.1,731.6,433.4,721.5z"/>
	<path class="st0" d="M962.1,462.7c-0.3,0.2-0.5,0.4-0.6,0.5C961.7,463,961.9,462.8,962.1,462.7z"/>
	<path class="st0" d="M1268.2,301.4l-188.4-176.3c-6.4-6-15.2-8.9-23.9-7.9c-8.7,1-16.6,5.8-21.5,13.1l-32.2,48
		c-8.2,12.2-6.3,28.6,4.4,38.6l137.6,128.7l-40.4,60.2l-11.2-11.7c-5.7-6-13.9-9.1-23.7-9.1c-18.6,0-41.5,11.2-61.1,30.1
		c-12.2,11.7-21.7,24.9-27.2,37.9c-0.6,0.2-1.1,0.3-1.7,0.5c-3,1-6,2.2-8.8,3.8l-0.2,0.1c-0.3,0.2-0.6,0.3-1,0.5
		c-0.1,0.1-0.3,0.2-0.4,0.2l-1,0.6c0,0-0.1,0-0.1,0.1c-0.8,0.5-1.5,1-2.3,1.6c0,0-0.1,0-0.1,0.1l-2.4,1.7l-0.3,0.2l-0.1,0.1
		c-0.1,0.1-0.1,0.1-0.2,0.2c0.1-0.1,0.2-0.1,0.3-0.2c-0.3,0.2-0.6,0.5-0.9,0.7c0,0,0,0,0,0c-0.3,0.3-0.6,0.5-0.8,0.8l-0.7,0.7
		c0,0-0.1,0.1-0.1,0.1l-1.4,1.4c-1.2,1.1-2.1,2.3-2.8,3.2c-0.2,0.2-0.4,0.5-0.6,0.7c-1.1,1.3-1.9,2.5-2.6,3.6
		c-0.2,0.2-0.3,0.5-0.5,0.7c0,0.1-0.1,0.1-0.1,0.2c-0.9,1.4-1.6,2.7-2.2,3.9l-0.3,0.6c0,0.1-0.1,0.2-0.1,0.3c-2.4,5-4,10.5-4.7,16.2
		c0,0,0,0,0,0l0-0.1c-0.1-0.2-0.3-0.5-0.4-0.7c-0.4-0.8-0.9-1.6-1.3-2.4c7.2-20.4,11.3-41.7,12.1-63.5c4.1-15.2,5-31.8,2.7-48.1
		c-3.2-22.3-12.4-43.4-26-59.5c-22.2-49.3-57.9-94.3-100.7-126.7c-23.8-18-49.6-32.1-76.5-41.8C725,142.3,694.4,137,663.3,137
		c-4,0-7.6,2.4-9.2,6.1c-1.6,3.7-0.8,8,2,10.8c7.4,7.7,8.3,14.1,3.3,23.8c-5.8,11.1-18.6,24.3-33.5,39.6
		c-18.4,18.9-41.2,42.4-60,71.8c-20.2,31.5-32.3,64.2-36.8,99.6l-0.6-0.1c-2.3-0.3-4.7-0.5-7.1-0.5h0c-30.1,0-56.5,26.8-61.5,62.4
		c-2.6,18.3,0.8,36.4,9.5,51c0.7,1.2,1.4,2.3,2.2,3.4c-4.7,5-9.1,10.3-13,16c-12.6,18.2-20.6,39.7-23,62.1
		c-2.8,24.5,1.1,49.6,11.2,72.7c0,0,0,0.1,0.1,0.1l1.9,4.1c0,0,0,0.1,0,0.1c0.5,1.1,1.1,2.2,1.6,3.2c0.2,0.4,0.4,0.7,0.6,1.1
		c1.2,2.4,2.5,4.7,3.8,6.8c0.3,0.5,0.6,1.1,1,1.6c0,0.1,0.1,0.1,0.1,0.2c0.7,1.1,1.3,2.1,1.9,3c0.2,0.4,0.5,0.7,0.7,1.1
		c0,0,0,0,0,0.1l1.2,1.9c0.4,0.5,0.7,1.1,1.1,1.5l0.8,1c1.1,1.5,2.2,2.9,3.3,4.3l2.2,2.9l1,1.4l0.3,0.3l0,0c0.4,0.5,0.8,1,1.3,1.5
		l0,0l0.1,0.1l0.8,0.9c0,0,0,0,0,0l3.1,3.5c0.9,1,1.8,1.9,2.6,2.7c0.3,0.3,0.6,0.6,1,1c0,0,0.1,0.1,0.1,0.1l0.7,0.7
		c0.9,0.9,1.9,1.9,3.1,3l3.5,3.1c0,0,0,0,0,0c1,0.9,1.9,1.7,2.9,2.4c0.3,0.3,0.7,0.6,1,0.8c2.2,1.9,4.5,3.5,6.7,5.1
		c0.5,0.3,0.9,0.7,1.4,1c0.1,0.1,0.1,0.1,0.2,0.1c11.6,8.1,23.9,14.4,36.6,18.8c7.9,2.8,16.2,5,24.8,6.5c3,6.2,6.7,11.7,11.1,16.8
		c1.6,1.9,3.4,3.7,5,5.2c0.1,0.1,0.2,0.2,0.3,0.3c1.7,1.6,3.7,3.2,5.8,4.9c0.1,0.1,0.2,0.2,0.4,0.3c1.8,1.3,4.1,2.9,6.6,4.4
		c0,0,0.1,0,0.1,0.1c1.1,0.6,2.3,1.3,3.4,1.9c0,0,0,0,0.1,0l1.1,0.6c0.5,0.3,1.1,0.5,1.7,0.8l1.2,0.5l0.2,0.1l0.1,0l1.3,0.7l0.3,0.2
		l0.2,0.1c0.3,0.2,0.7,0.3,1.1,0.5l0.5,0.2c0,0,0.1,0,0.1,0c0.8,0.3,1.6,0.6,2.5,0.8c1.6,0.5,3.3,1,5,1.5c0,0,0.1,0,0.1,0l1.1,0.3
		c0.1,0,0.2,0,0.3,0.1l0.9,0.2c0,0,0.1,0,0.1,0l1.7,0.4c0,0,0.1,0,0.1,0c1.2,0.3,2.5,0.5,3.7,0.7c0.1,0,0.2,0,0.3,0
		c1.4,0.2,2.7,0.3,3.7,0.4c0,0,0,0,0.1,0l0.4,0c1,0.1,2.2,0.2,3.4,0.3c0,0,0.1,0,0.1,0c1.2,0,2.4,0.1,3.5,0.1c0.3,0,0.5,0,0.8,0
		c8.4,0,16.8-1.2,25.5-3.7c6.7-1.9,13.3-4.6,20.1-8c5.2-2.6,10.4-5.7,16.1-9.6c8.7-5.9,17-12.8,25.4-21.1
		c6.8-6.7,13.3-14.1,19.8-22.4c5.7-7.3,11-15.1,15.9-23.1c2.3-3.8,4.6-7.8,6.7-11.7l0.4-0.7l0.1-0.2l0,0c0.2-0.4,0.4-0.7,0.6-1.1
		l0.6-1l0.2-0.4l1-1.8l0.3-0.5l0-0.1c0.1-0.2,0.3-0.6,0.6-1.1l0.7-1.5l0.5-1l1-2.2l0.5-1c1.1,1.6,2.2,3.3,3.4,4.8c0,0,0,0,0,0
		l0.7,0.9c0.7,1,1.4,2,2.2,3c0,0,0.1,0.1,0.1,0.1l1.3,1.6l1.6,2c1.7,2.2,3.5,4.2,5.2,6.1c0.4,0.5,0.8,0.9,1.2,1.4
		c0,0,0.1,0.1,0.1,0.1c1.9,2.1,3.8,4,5.7,5.9l1.2,1.2c0.1,0.1,0.2,0.2,0.3,0.3l0.4,0.4l3,2.8c0,0,0,0,0.1,0.1l1.7,1.6l0.4,0.4
		c0,0,0.1,0.1,0.1,0.1c0.2,0.2,0.4,0.4,0.9,0.8c0.3,0.3,0.6,0.5,0.8,0.7l0.2,0.1l0.6,0.5l2.4,1.9l3.7,2.9c1.6,1.2,3.1,2.4,4.6,3.5
		c0.1,0.1,0.2,0.2,0.4,0.3l1.8,1.2l2.2,1.5c2.4,1.7,4.9,3.1,7.2,4.5c0.5,0.3,1,0.6,1.5,0.9c1.2,0.7,2.3,1.3,3.4,1.9
		c0.4,0.2,0.8,0.4,1.2,0.7c0.1,0,0.1,0.1,0.2,0.1c0.4,0.2,0.8,0.4,1.2,0.6c1,0.5,2.2,1.2,3.4,1.7c21.8,10.7,46.1,16.4,70.4,16.4
		c3.6,0,7.2-0.1,10.7-0.4c14.3-1,28-3.9,40.9-8.4c12.8-4.4,25.2-10.8,36.8-18.9c0.1,0,0.1-0.1,0.2-0.1c0.5-0.3,0.9-0.7,1.4-1
		c2.2-1.6,4.5-3.3,6.7-5.2c0.3-0.3,0.7-0.6,1-0.8c0.9-0.8,1.9-1.5,2.9-2.4c0,0,0,0,0,0l3.5-3.1c1.2-1,2.2-2.1,3.1-3l0.7-0.7
		c0,0,0.1-0.1,0.1-0.1c0.3-0.3,0.6-0.6,1-1c0.8-0.8,1.7-1.7,2.6-2.7l3.2-3.5c0,0,0,0,0,0l0.8-0.9l0.1-0.2l0,0c0.5-0.5,0.9-1,1.3-1.5
		l0,0l0.3-0.3l1.1-1.4l2.2-2.9c1.1-1.4,2.2-2.9,3.3-4.3l0.8-1.1c0.3-0.4,0.7-0.9,1.1-1.5l1.2-1.9c0,0,0,0,0-0.1
		c0.2-0.4,0.5-0.7,0.7-1.1c0.6-1,1.3-2,2-3.1c0-0.1,0.1-0.1,0.1-0.2c0.3-0.5,0.6-1.1,1-1.6c1.3-2.2,2.6-4.4,3.9-6.9
		c0.2-0.4,0.4-0.7,0.6-1.1c0.5-1,1.1-2.1,1.6-3.2c0,0,0-0.1,0-0.1l1.9-4.1c0,0,0-0.1,0.1-0.1c3.7-8.4,6.6-17,8.6-25.8
		c4.4,2.5,9.5,3.8,14.6,3.8c1.1,0,2.3-0.1,3.4-0.2c8.7-1,16.6-5.8,21.5-13.1L1272.6,340C1280.8,327.8,1278.9,311.4,1268.2,301.4z
		 M574,564.1c-4.6,3.8-7.7,7.7-9.6,10.2c0,0,0,0-0.1,0.1c-4.1,5.6-7.3,11.6-9.9,18.7c0,0,0,0,0,0.1c-0.8,2.3-1.6,4.5-2.2,6.8
		l-23,1.2c0.1-0.5,0.2-0.9,0.3-1.4l3.8-26.7c3-0.9,5.9-2.1,8.9-3.7c0.1-0.1,0.3-0.2,0.4-0.2c0.9-0.5,1.8-1.1,2.9-1.8
		c0,0,0.1-0.1,0.1-0.1l0.5-0.3l0.6-0.4c0.1,0,0.1-0.1,0.2-0.1l0.7-0.5l0.7-0.5l0.4-0.3c0.3-0.2,0.7-0.5,1-0.8l0.9-0.8
		c0.7-0.7,1.4-1.4,2.1-2c0.1-0.1,0.2-0.2,0.2-0.2c5.3-5.7,9.1-12.6,11-20c3.2,4.8,6.7,9.4,10.3,13.9c1.4,2.1,2.8,4.1,4.4,6
		C577,561.8,575.5,562.9,574,564.1z M697.8,329.6L697.8,329.6c-0.1,0.1-0.2,0.1-0.3,0.2C697.6,329.7,697.7,329.7,697.8,329.6z
		 M735.7,375.7c-8.2-1.7-16.5-2.4-24.4-2.3c-9.6,0.2-18.6,1.6-25.9,4c-3.7,1.2-6.9,2.6-9.7,4.2c-2.7,1.6-4.9,3.3-6.5,5
		c-1.6,1.7-2.4,3.3-2.9,4.5c-0.1,0.2-0.1,0.3-0.2,0.4c-0.3-9.9,1.5-20,5.5-29.8c5.1-12.4,13.3-22.7,23.3-30.3c0,0,0.3-0.1,0.9-0.2
		c0.6-0.1,1.4-0.4,2.5-0.5c1.1-0.2,2.4-0.4,3.9-0.5c0.7-0.1,1.5-0.1,2.3-0.1c0.8-0.1,1.7,0.1,2.5,0.1c0.2,0,0.4,0,0.7,0
		c0.2,0,0.4,0.1,0.7,0.1c0.4,0.1,0.9,0.2,1.3,0.2c0.4,0.1,0.9,0.2,1.4,0.4c0.2,0.1,0.5,0.1,0.7,0.2l0.7,0.2c1.9,0.6,3.7,1.5,5.6,2.6
		c1.9,1.1,3.7,2.5,5.6,3.9c1.8,1.5,3.7,3.1,5.6,4.8c1.9,1.7,3.8,3.4,5.6,5.1c1.9,1.7,3.8,3.3,5.8,4.9c2,1.5,4,2.9,6,4.2
		c0.9,0.5,1.8,1,2.7,1.5l0.3,0.5L735.7,375.7z M881.2,409.1c-6.6-1.4-13.9-3.5-22.2-6.4c-10.6-3.8-21.2-6.2-31.5-7.5
		c-4.7-0.8-9.3-1.4-13.9-1.8c-0.5-9.3,0.4-18.4,2.5-26.7c30.2-11.7,38.2-30.8,62.3-38.8c1-0.3,2-0.6,3-0.8c4.2,0.4,8.3,1.5,12.2,3.1
		c16.2,11.3,28.4,31.3,31.8,55.2c0.3,1.9,0.5,3.9,0.6,5.8C923.1,400.2,913.4,413.6,881.2,409.1z M967.3,580.9
		C967.3,581,967.3,581,967.3,580.9c-1.2,10.6-5.3,21-11.6,29.3l-1.3,1.7c-0.1,0.1-0.3,0.4-0.5,0.6c-0.3,0.3-0.5,0.6-0.8,0.9
		c0,0.1-0.1,0.1-0.1,0.2c-0.3,0.4-0.8,0.9-1.3,1.4c-0.4,0.4-0.8,0.8-1.1,1.2c-0.2,0.2-0.4,0.3-0.5,0.5c-0.3,0.3-0.5,0.5-0.8,0.8
		l-0.5,0.5l0,0c0,0,0,0,0,0c-0.6,0.4-1.2,0.9-1.7,1.3c0,0-0.1,0.1-0.1,0.1l-2.3,1.9c-0.3,0.2-0.6,0.4-0.8,0.6l-0.1,0.1
		c0,0-0.1,0-0.1,0.1l-1.8,1.3c0,0,0,0-0.1,0c-0.1,0-0.3,0.2-0.5,0.3c-0.3,0.2-0.6,0.4-0.9,0.5c-0.2,0.1-0.4,0.2-0.6,0.4
		c-0.2,0.1-0.3,0.2-0.5,0.3c-0.1,0.1-0.2,0.1-0.3,0.2l-1.9,1c0,0,0,0-0.1,0c-0.2,0.1-0.3,0.2-0.5,0.2c-0.4,0.2-0.7,0.3-1.1,0.5
		c-0.1,0-0.1,0.1-0.2,0.1c-0.4,0.2-1,0.4-1.6,0.7c-0.5,0.2-1,0.4-1.4,0.6c-0.2,0.1-0.5,0.2-0.7,0.3c3.7-4.5,7.1-9.5,10.1-14.9
		c5.5-9.9,9.6-21,12-32.6l14.1-13.6C967.8,572,967.8,576.5,967.3,580.9z"/>
</g>
<g>
	<g>
		<path class="st1" d="M954,538.6c0.2,1.6,0.5,3.2,0.7,4.8c0.2,1.6,0.4,3.3,0.5,4.9c0.1,0.8,0.1,1.7,0.2,2.5l0.1,1.4l0,1.2
			c0,0.8,0.1,1.6,0.1,2.4c0,0.8,0,1.7,0,2.6c0,4.8-0.3,9.5-0.8,14.3l22-21.2c-0.3-0.9-0.6-1.7-1-2.6c-2.3-5.7-5.2-11.1-8.7-15.9
			c-0.4-0.6-0.9-1.2-1.3-1.8l-0.7-0.9l-0.1-0.1c-1.4-1.4-0.4-0.5-0.8-0.8l-0.2-0.3l-0.4-0.6l-0.9-1.3c-0.6-0.8-1.2-1.7-1.8-2.6
			l-0.9-1.3c-0.3-0.4-0.4-0.8-0.6-1.1c-0.4-0.7-0.8-1.5-1.2-2.2c-0.1-0.2-0.1-0.3-0.2-0.5l-6.6,6.4C952.4,530,953.3,534.2,954,538.6
			z"/>
	</g>
	<path class="st1" d="M1110.4,419.9l-21.4-22.3c-7.6-7.9-20.1-9.7-35.4-5.1c-14.1,4.2-29.1,13.5-42.4,26.2
		c-13.2,12.7-23.2,27.3-28,41.2c-4.1,11.9-4.2,22.3-0.2,30.1c3.1,5.3,6,7.6,14.9,14.8c5.4,4.9,10.6,10.6,15.3,16.9
		c16.7,9.8,47-0.2,72.8-25C1114.6,469.3,1125.3,435.5,1110.4,419.9z"/>
	<g>
		<path class="st2" d="M997.9,504.7c3.4,3.1,6.6,6.4,9.7,10l3.1-3L992.6,493l-4,3.9C990.8,499,993.6,501.3,997.9,504.7z"/>
		<g>
			<path class="st2" d="M954,538.6c0.2,1.6,0.5,3.2,0.7,4.8c0.2,1.6,0.4,3.3,0.5,4.9c0.1,0.8,0.1,1.7,0.2,2.5l0.1,1.4l0,1.2
				c0,0.8,0.1,1.6,0.1,2.4c0,0.8,0,1.7,0,2.6c0,2.2-0.1,4.5-0.2,6.7l19.3-18.7c-2.1-4.8-4.7-9.3-7.6-13.5c-0.4-0.6-0.9-1.2-1.3-1.8
				l-0.7-0.9l-0.1-0.1c-1.4-1.4-0.4-0.5-0.8-0.8l-0.2-0.3l-0.4-0.6l-0.9-1.3c-0.6-0.8-1.2-1.7-1.8-2.6l-0.4-0.6l-7.8,7.5
				C953.2,533.9,953.6,536.2,954,538.6z"/>
			<path class="st2" d="M949.4,552.3c-0.3-5.2-0.9-10.5-1.9-15.8l0,0c0,0.2,0.1,0.5,0.1,0.7c0.1,0.4,0.1,0.8,0.2,1.2
				c0.2,1.1,0.3,2.2,0.5,3.3c0.1,0.5,0.1,1,0.2,1.5c0.1,1.1,0.2,2.1,0.4,3.2c0,0.5,0.1,0.9,0.1,1.4
				C949.2,549.3,949.3,550.8,949.4,552.3c0.1,1,0.1,2,0.1,3c0,0.2,0,0.4,0,0.6c0,1,0,1.9,0,2.9c0,0.2,0,0.4,0,0.5c0,0.9,0,1.9,0,2.8
				c0,0.1,0,0.2,0,0.3c0,1-0.1,2-0.1,3c0,0.2,0,0.4,0,0.6c-0.1,1-0.1,2-0.2,2.9c0,0,0,0,0,0c0,0,0,0,0,0
				C949.6,563.4,949.7,557.8,949.4,552.3z"/>
		</g>
	</g>
	<g>
		<g>
			<path class="st2" d="M1085.3,401.1c3.9,4,17.5,18.3,21.4,22.3c12.8,13.4,2,44.6-24.2,69.7c-26.2,25.1-57.8,34.6-70.6,21.2
				c-3.9-4-17.5-18.3-21.4-22.3c-12.8-13.4-2-44.6,24.2-69.7S1072.5,387.7,1085.3,401.1z"/>
		</g>
		<path class="st1" d="M1099.4,430.4c-5.5-5.7-14.8-7-26.4-3.5c-11.2,3.4-23.2,10.8-33.8,21s-18.6,21.8-22.4,32.9
			c-3.9,11.4-3.1,20.8,2.4,26.5c3.4,3.6,8.4,5.4,14.5,5.4c3.6,0,7.6-0.6,11.8-1.9c11.2-3.4,23.2-10.8,33.8-21
			C1101.5,468.6,1110.5,442,1099.4,430.4z"/>
		<g>
			<g>
				<path class="st3" d="M1096.7,429.8c-7.1-5.3-19-4.3-32,1.8l-47.4,70.6c0.4,0.9,0.8,1.7,1.4,2.4c11.5,8.7,36,0.6,56.6-19
					C1095.8,465.9,1104.9,441.7,1096.7,429.8z"/>
			</g>
			<path class="st4" d="M1040.2,448.9c-19.2,18.4-28.4,40.8-22.8,53.3l47.4-70.6C1056.6,435.4,1048.1,441.3,1040.2,448.9z"/>
		</g>
	</g>
</g>
<g>
	<path class="st5" d="M882,651.2L882,651.2c0.1,0,0.2,0,0.2,0C882.2,651.2,882.2,651.2,882,651.2C882.1,651.2,882,651.2,882,651.2
		C882,651.2,882,651.2,882,651.2z"/>
	<path class="st5" d="M497.3,543.2L497.3,543.2c0.1-0.1,0.2-0.2,0.3-0.3C497.5,543,497.4,543.1,497.3,543.2z"/>
	<path class="st5" d="M496.8,543.7c0.1-0.1,0.3-0.3,0.5-0.5l0,0C497.1,543.4,496.9,543.6,496.8,543.7z"/>
	<path class="st5" d="M496.7,543.7C496.6,543.9,496.6,543.9,496.7,543.7L496.7,543.7z"/>
	<path class="st5" d="M550.3,698.9c-0.1-10,0.8-19.8,2.8-30.1c1.5-7.7,3.5-15.4,6.1-23.2c-5.7-0.4-11.5-1.7-17.1-3.8
		c-1.3-0.6-2.7-1-4-1.7c-0.7-0.3-1.3-0.6-2-0.9l-1.9-1c-0.7-0.3-1.3-0.7-1.9-1.1c-0.6-0.4-1.3-0.7-1.9-1.2l-1.9-1.3l-0.5-0.3
		l-0.1-0.1c-0.6-0.6,0.7,0.8,0.5,0.6l-0.3-0.3l-1.3-1.1l-2.5-2.1c-0.4-0.4-0.9-0.7-1.3-1l-0.3-0.3c-0.1-0.1-0.2-0.2-0.4-0.3
		l-0.8-0.8c-0.5-0.5-1.1-1-1.7-1.6c-1-1.1-2.2-2.2-3.1-3.4c-0.5-0.6-1-1.1-1.5-1.7l-1.4-1.8c-7.5-9.8-12.4-22-13.8-34.7
		c-1.1-9.2-0.4-18.5,1.8-27.3c0.6,0.4,1.2,0.9,1.9,1.4c2.5,1.6,5.8,3.3,10,4.3c4.2,1,9.4,1.3,15.1,0c2.8-0.7,5.7-1.8,8.6-3.4
		c0.8-0.5,1.6-1,2.4-1.6c0.4-0.3,0.7-0.5,1.1-0.8l0.7-0.5l0.7-0.5l0.4-0.3l0.9-0.8c0.6-0.6,1.3-1.2,1.9-1.9c5-5.3,9-12.9,9.6-21.7
		c0.3-4.4-0.1-9.1-1.5-13.7c-0.7-2.3-1.7-4.6-2.9-6.8c-0.1-0.3-0.3-0.6-0.5-0.8l-0.6-1c-0.4-0.6-0.8-1.3-1.3-1.9
		c-0.6-0.8-1.1-1.6-1.7-2.3l-0.2-0.2l-0.1-0.1c-0.3-0.3,0.5,0.5-0.6-0.7l-0.7-0.7l-1.4-1.4c-0.9-1-2-1.8-3-2.7
		c-1-0.9-2.2-1.6-3.4-2.4c-1.2-0.8-2.4-1.4-3.7-2c-5.1-2.5-10.8-3.9-16.9-4c-6-0.1-12.3,1.1-18.2,3.9c-0.7,0.4-1.4,0.7-2.2,1.1
		c-0.4,0.2-0.7,0.3-1.1,0.6l-1.3,0.8c-0.8,0.6-1.7,1.1-2.5,1.7l-1.3,0.9l-0.6,0.4l-0.3,0.2c-0.4,0.3,0.6-0.6-0.8,0.8l-0.2,0.1
		l-1.2,1.1c-0.8,0.7-1.7,1.5-2.5,2.2c-6.6,6-12.8,13-18.3,20.9c-11,15.9-18.9,35.7-21.3,57.5c-2.5,21.8,0.7,45.5,10.4,67.5l1.9,4.1
		c0.6,1.4,1.4,2.7,2.1,4c1.4,2.7,3,5.3,4.5,8c0.8,1.3,1.7,2.6,2.5,3.9l1.3,1.9c0.2,0.3,0.5,0.7,0.7,1l0.8,1c1,1.4,2.1,2.8,3.1,4.2
		l2.2,2.9l1.1,1.4l0.3,0.3c-0.1-0.1,1.3,1.4,0.8,0.9l0.2,0.2l0.8,0.9l3.1,3.5c1,1.2,2.2,2.2,3.3,3.4c1.1,1.1,2.2,2.2,3.4,3.3
		l3.5,3.2c1.2,1.1,2.4,2,3.6,3c2.4,2,5,3.9,7.6,5.8c10.5,7.3,22,13.4,34.2,17.6c6.2,2.2,12.6,4,19.1,5.3c-1.7-4.9-3-9.9-3.9-15.2
		C551,710.6,550.5,704.9,550.3,698.9z M497.3,543.2c-2.3,2.2-3,5.7-1.7,8.6c-2.5-2.3-2.5-6.2-1-9c2.6-4.8,8.3-5.9,13-3.9
		c0.5,0.2,0.9,0.4,1.4,0.6c1.4-2.6,3-5.1,4.6-7.4c0.4-0.6,0.9-1.2,1.3-1.8l0.7-0.9l0.1-0.1c-1.4,1.3-0.3,0.3-0.6,0.5l0.2-0.3
		l0.5-0.5l0.5-0.5l0.2-0.3l0.1-0.1l0,0c-0.1,0.1-0.2,0.1-0.3,0.1c-0.1,0-0.1,0-0.2,0c-0.1,0,0-0.1,0-0.1c0.1-0.1,0.1-0.2,0.2-0.3
		c0.4-0.7,1.1-1.3,2-1.7c0.9-0.4,1.9-0.6,2.9-0.6c0.2,0.1,0.5,0,0.8,0.1c0.2,0.1,0.5,0.1,0.8,0.2c0.2,0.1,0.5,0.1,0.8,0.3
		c0.1,0.1,0.3,0.1,0.4,0.2l0.2,0.1c-1-1.1-0.2-0.2-0.4-0.5l0.1,0.1l0.2,0.2l0.9,0.8l0.4,0.4c0.1,0,0,0,0,0c0,0,0,0,0.1,0l0.1,0
		c0,0,0.1,0.1,0.1,0.1c0.4,0.4,0.8,0.8,1.2,1.3c0.7,0.9,1.2,2.1,1.5,3.3c0,0.1,0,0.1,0,0.2c0.5-1.6,0.9-3.6,1.1-5.8
		c1.2,0.2,4.8,0.8,4.8,0.8c-0.2,2.8-1.2,7.7-2.5,10.2c-2.4,4.6-6,7.3-10.9,8.3c-2.7,0.6-5.3,0.4-7.8-0.3c-0.6-0.1-1.1-0.3-1.6-0.4
		c-0.6-0.3-1.3-0.5-1.7-0.7c-0.5-0.2-0.9-0.4-1.2-0.7c-0.6-0.4-1-0.6-1-0.6c-1.3-0.8-2.6-1.6-4.1-1.9
		C501.3,540.9,499,541.7,497.3,543.2C497.3,543.2,497.3,543.2,497.3,543.2z"/>
	<path class="st5" d="M1037.6,584c-2.1-19.9-8.9-38.3-18.4-53.5c-0.9,0.2-1.8,0.3-2.7,0.4c-1.4,0-2.7-0.1-4-0.4
		c-1.3-0.3-2.6-0.8-3.7-1.4c-1.1-0.6-2.1-1.4-3-2.2c-0.7-0.7-1.8-2-2-2.6l-0.1-0.1l0-0.1l0,0c-0.1-0.1,0.1,0.1-0.1-0.1l0,0l0,0
		l-0.2-0.3c-0.1-0.2-0.2-0.5-0.3-0.7c-0.2-0.5-0.3-0.9-0.4-1.4c-0.2-0.9-0.3-1.7-0.3-2.5c0-1.5,0.3-2.6,0.6-3.4
		c0.1-0.4,0.3-0.7,0.3-0.8c0.1-0.2,0.1-0.3,0.1-0.3s0,0,0,0.1c-0.3,2.5,0.5,5.2,2.4,7.2c2.4,2.5,8.4,5.2,12,2
		c-1.5-0.6-3.1-1.2-4.8-2.2c-1.8-1.1-3.5-2.4-4.9-3.9l-11.5-12l-9.9-10.3c-0.4-0.4-0.8-0.8-1.1-1.2c-0.1-0.1-0.1-0.2-0.2-0.2
		c-0.3-0.4-0.6-0.7-0.8-1.1c0,0-0.1-0.1-0.1-0.2c-0.3-0.4-0.6-0.8-0.8-1.2c0-0.1-0.1-0.1-0.1-0.2c-0.2-0.4-0.5-0.8-0.7-1.3
		c0,0,0,0,0,0c0,0,0-0.1-0.1-0.1c-0.1-0.2-0.2-0.4-0.3-0.6c-0.2-0.4-0.4-0.9-0.6-1.4c-0.1-0.3-0.2-0.6-0.3-0.9
		c-0.1-0.3-0.2-0.6-0.3-0.9c-0.1-0.3-0.2-0.5-0.2-0.8c-0.1-0.3-0.2-0.6-0.3-1c-0.1-0.3-0.1-0.6-0.2-0.9c-0.1-0.6-0.2-1.1-0.3-1.7
		c0-0.3-0.1-0.5-0.1-0.8c0-0.4-0.1-0.8-0.1-1.1c0-0.3,0-0.5-0.1-0.8c-0.1-0.9-0.1-1.7-0.1-2.6c0-0.1,0-0.2,0-0.3
		c0-0.4,0-0.9,0.1-1.3c0-0.2,0-0.5,0-0.7c0-0.5,0.1-0.9,0.1-1.4c0-0.2,0-0.4,0.1-0.6c0.1-0.9,0.2-1.8,0.4-2.8c0-0.2,0.1-0.4,0.1-0.5
		c0.1-0.5,0.2-1,0.3-1.5c0.1-0.2,0.1-0.5,0.2-0.7c0.3-1.2,0.6-2.3,0.9-3.5c-0.1,0-0.2,0.1-0.4,0.1c-2.4,0.8-4.8,1.8-7,3
		c-0.3,0.2-0.6,0.3-0.9,0.5l-1,0.6c-0.7,0.4-1.3,0.9-2,1.4c-0.8,0.6-1.6,1.2-2.4,1.7l-0.2,0.2l-0.1,0.1c-0.3,0.3,0.5-0.5-0.7,0.7
		l-0.7,0.7l-1.5,1.4c-1,0.9-1.8,2.1-2.7,3.1c-0.9,1.1-1.6,2.3-2.4,3.5c-0.8,1.2-1.4,2.5-2.1,3.8c-2.5,5.3-4,11.3-4,17.5
		c-0.1,6.2,1.2,12.7,4.2,18.7c0.4,0.7,0.8,1.5,1.2,2.2c0.2,0.4,0.4,0.7,0.6,1.1l0.9,1.3c0.6,0.9,1.2,1.7,1.8,2.6l0.9,1.3l0.4,0.6
		l0.2,0.3c0.3,0.4-0.6-0.6,0.8,0.8l0.1,0.1l0.7,0.9c0.4,0.6,0.9,1.2,1.3,1.8c3.5,4.9,6.4,10.2,8.7,15.9c4.6,11.4,6.5,24.2,5,36.7
		c-1.4,12.5-6.2,24.6-13.6,34.2l-1.4,1.8c-0.5,0.6-1,1.1-1.5,1.7c-0.9,1.2-2.1,2.2-3.1,3.3c-0.5,0.5-1.1,1-1.6,1.5l-0.8,0.8
		c-0.1,0.1-0.3,0.2-0.4,0.3l-0.3,0.2c-0.4,0.3-0.9,0.7-1.3,1l-2.5,2.1l-1.3,1.1l-0.3,0.3c-0.2,0.2,1.2-1.2,0.5-0.6l-0.1,0.1
		l-0.5,0.3l-1.8,1.3c-0.6,0.4-1.3,0.8-1.9,1.2c-0.6,0.4-1.2,0.8-1.9,1.1l-1.9,1c-0.6,0.3-1.3,0.6-1.9,0.9c-1.3,0.7-2.6,1.1-3.9,1.7
		c-5.2,2-10.6,3.2-15.9,3.7c-1.5,1.3-3.1,2.5-4.8,3.6c-5.2,3.6-10.9,6.7-16.8,9c-5.9,2.3-12.1,3.9-18.3,4.7l0,0l0,0l-0.3,0l0,0
		c0,0,0,0,0,0l-0.3,0l0,0c-3.4,0.3-6.8,0.5-10.3,0.4c-1.8,0-3.5-0.1-5.3-0.2c-1.8-0.1-3.6-0.2-5.3-0.5c-1.8-0.2-3.6-0.5-5.3-0.8
		c-1.8-0.3-3.5-0.7-5.3-1.1c-3.5-0.9-7-1.9-10.3-3.2c-3.4-1.2-6.7-2.7-9.9-4.4c-1.6-0.8-3.2-1.7-4.7-2.6c-1.5-1-3-1.9-4.5-2.9
		c-1.4-1-2.9-2-4.3-3.1l-2.1-1.6l-0.4-0.3l-0.2-0.2l-0.5-0.4l-0.9-0.8c-0.6-0.5-1.3-1.1-2-1.7c-0.7-0.6-1.3-1.2-2-1.8
		c-1.3-1.2-2.5-2.4-3.7-3.7c-4.8-5-9.1-10.4-13-16c-1.9-2.8-3.7-5.7-5.4-8.7c-1.7-2.9-3.2-5.9-4.6-9c-1.4-3-2.7-6.1-3.9-9.2
		c-1.2-3.1-2.3-6.3-3-9.5c-0.8-3.2-1.3-6.6-1.5-9.9c-0.2-3.4-0.1-6.7,0.5-10.2c0.3,1.1,0.5,2.2,0.8,3.3c0.1,0.3,0.2,0.6,0.2,0.9
		c0.2,0.9,0.5,1.7,0.7,2.6c0.1,0.3,0.1,0.5,0.2,0.8c0.3,1.1,0.7,2.2,1,3.3c0.1,0.2,0.1,0.4,0.2,0.6c0.3,0.9,0.6,1.8,0.9,2.7
		c0.1,0.3,0.2,0.6,0.3,0.8c0.4,1,0.7,2,1.1,3c0,0.1,0.1,0.1,0.1,0.2c0.4,1.1,0.9,2.2,1.3,3.3c0.1,0.2,0.2,0.4,0.3,0.7
		c0.4,0.9,0.8,1.8,1.2,2.7c0.1,0.2,0.2,0.4,0.3,0.6c1,2.2,2,4.3,3.1,6.4c0.1,0.2,0.2,0.4,0.3,0.6c0.5,1,1,2,1.6,3c0,0,0,0.1,0.1,0.1
		c0.6,1.1,1.2,2.2,1.8,3.2c0.1,0.1,0.1,0.2,0.2,0.3c0.6,1,1.1,1.9,1.7,2.9c0.1,0.1,0.2,0.3,0.2,0.4c1.3,2.1,2.6,4.1,4,6.1
		c0.1,0.1,0.2,0.2,0.2,0.3c0.7,0.9,1.3,1.9,2,2.8c0,0.1,0.1,0.1,0.1,0.2c0.8,1,1.5,2,2.3,3l0,0c5.7,7,12.2,13.4,19.4,18.8
		c18.3,13.7,38.7,18.6,61,16.6c0,0,0,0,0.1,0c8.6-1.2,16.4-3.8,23.4-7.6c0.9-0.5,1.9-1,2.8-1.6c0,0,0.1,0,0.1-0.1
		c1.8-1.1,3.6-2.3,5.3-3.5c0,0,0.1-0.1,0.1-0.1c0.9-0.6,1.7-1.3,2.5-2c0,0,0,0,0,0c1.7-1.4,3.3-2.8,4.8-4.3c0,0,0.1-0.1,0.1-0.1
		c1.5-1.5,3-3,4.4-4.7c0,0,0,0,0,0c0.7-0.8,1.4-1.6,2-2.4c0-0.1,0.1-0.1,0.1-0.2c1.3-1.7,2.6-3.4,3.8-5.1c0-0.1,0.1-0.1,0.1-0.2
		c0.6-0.9,1.2-1.8,1.7-2.7c0-0.1,0.1-0.1,0.1-0.2c1.1-1.8,2.2-3.6,3.2-5.5c0-0.1,0.1-0.2,0.1-0.3c0.5-0.9,1-1.9,1.4-2.8
		c0,0,0-0.1,0.1-0.1c0.5-1,0.9-1.9,1.4-2.9c0,0,0,0,0-0.1c0.4-1,0.8-1.9,1.2-2.9c0-0.1,0.1-0.2,0.1-0.4c0.4-1,0.8-2,1.2-2.9
		c0,0,0,0,0,0c0.4-1,0.7-2,1.1-3c0-0.1,0.1-0.2,0.1-0.3c0.3-1,0.6-2,0.9-2.9c0-0.1,0.1-0.3,0.1-0.4c0.6-2,1.2-4,1.6-6
		c0-0.2,0.1-0.3,0.1-0.5c0.2-1,0.5-2,0.7-3c0-0.1,0.1-0.3,0.1-0.4c0.2-1,0.4-2,0.6-2.9c0,0,0-0.1,0-0.1c0.2-1,0.3-2,0.5-3
		c0-0.2,0.1-0.4,0.1-0.6c0.1-1,0.3-2,0.4-3c0-0.1,0-0.3,0-0.4c0.1-0.9,0.2-1.9,0.3-2.8c0-0.1,0-0.3,0-0.4c0.1-1,0.2-2,0.2-2.9
		c0-0.2,0-0.4,0-0.6c0.1-1,0.1-2,0.1-3c0-0.1,0-0.2,0-0.3c0-0.9,0-1.9,0-2.8c0-0.2,0-0.4,0-0.5c0-1,0-1.9,0-2.9c0-0.2,0-0.4,0-0.6
		c0-1-0.1-2-0.1-3c-0.1-1.5-0.2-3-0.3-4.5c0-0.5-0.1-0.9-0.1-1.4c-0.1-1.1-0.2-2.1-0.4-3.2c-0.1-0.5-0.1-1-0.2-1.5
		c-0.2-1.1-0.3-2.2-0.5-3.3c-0.1-0.4-0.1-0.8-0.2-1.2c-0.3-1.5-0.5-2.9-0.8-4.4c-0.1-0.4-0.2-0.7-0.2-1.1c-0.2-1.1-0.5-2.2-0.8-3.4
		c-0.1-0.5-0.3-1-0.4-1.5c-0.3-1-0.5-2-0.8-3c-0.1-0.5-0.3-1-0.4-1.5c-0.4-1.2-0.7-2.5-1.1-3.7c-0.1-0.2-0.1-0.4-0.2-0.7
		c-0.5-1.4-1-2.8-1.5-4.2c-0.2-0.5-0.4-1-0.6-1.5c-0.4-0.9-0.7-1.9-1.1-2.8c-0.2-0.5-0.4-1.1-0.7-1.6c-0.4-0.9-0.8-1.9-1.2-2.8
		c-0.2-0.4-0.4-0.9-0.6-1.3c-0.6-1.3-1.3-2.6-1.9-3.9c-0.2-0.4-0.4-0.7-0.6-1.1c-0.5-1-1-1.9-1.6-2.9c-0.3-0.5-0.6-1-0.8-1.5
		c-3.2-5.4-6.8-10.6-10.9-15.4l0,0c0,0,7.3,2.4,12.6,7.4c7-20.6,10.8-42.6,10.8-65.5c0-112.5-112.7-273.9-281.7-273.9
		c51,53-126.4,100-126.4,273.9c0,48.4,17,93,45.3,128c2.7,4.1,5.9,8,9.6,11.6c5.6-1.3,11.4-1.1,16.8,0.8c8.5,2.9,15.5,9.4,19.7,18.2
		l-4.5,2.1c0,0,0,0,0,0c-1.3-2.8-3.1-5.8-5.8-8.7c-1.4-1.4-2.9-2.8-4.8-4l-0.7-0.4l-0.4-0.3l-0.5-0.3c-0.6-0.4-1.3-0.7-1.9-1
		c-0.1-0.1-0.4-0.2-0.4-0.2l-0.1,0l-0.3-0.1l-0.3-0.1c-0.4-0.2,0.7,0.3-0.9-0.4l-0.4-0.1c-4.2-1.4-8.5-1.7-12.1-1.1
		c-3.6,0.5-6.4,1.7-8.8,2.9c-2.4,1.2-4.3,2.6-6,4c-3.4,2.8-5.8,5.6-7.9,8.4c-4.1,5.6-6.7,11.1-8.6,16.4c-3.8,10.4-5,20-4.6,28.1
		c0.2,4.1,0.8,7.8,1.9,11.1c1,3.3,2.6,6.2,4.4,8.4c0.4,0.5,0.8,0.9,1.2,1.3h0c0.2,0.2,0.5,0.5,0.7,0.7c-2.6,7.5-4.8,15.5-6.4,23.9
		c-1.7,8.8-2.8,18.2-2.7,28.4c0.1,5.1,0.5,10.5,1.5,16.1c0.9,5.6,2.5,11.6,5.1,17.9c2.6,6.3,6.3,13,11.9,19.4c1.4,1.6,3,3.2,4.5,4.7
		c1.7,1.5,3.4,3,5.2,4.4c1.9,1.3,3.8,2.7,5.8,3.9c1,0.6,2.1,1.2,3.1,1.7l1.6,0.8c-1.5-0.5,2.5,1,2.1,0.8l0.2,0.1l0.3,0.2l1.3,0.7
		l0.3,0.2l0.2,0.1l0.5,0.2c0.7,0.3,1.5,0.5,2.2,0.8c1.5,0.5,3,0.9,4.4,1.3l1.1,0.3l0.9,0.2l1.7,0.4c1.1,0.2,2.3,0.4,3.4,0.6
		c1.1,0.2,2.2,0.3,3.4,0.4c1.1,0.1,2.3,0.2,3.4,0.3c1.1,0,2.2,0.1,3.3,0.1c8.7,0.1,16.5-1.3,23.4-3.3c6.9-2,12.9-4.5,18.4-7.3
		c5.5-2.8,10.4-5.8,15-8.9c9.2-6.3,16.9-13,24-19.9c7-6.9,13.2-14.1,18.9-21.4c5.7-7.3,10.7-14.7,15.3-22.2
		c2.3-3.7,4.5-7.5,6.5-11.3l0.4-0.7l0.1-0.2c0,0.1,0.5-1.3,0.3-0.8l0.2-0.3l0.6-1.1c0.4-0.7,0.8-1.5,1.2-2.2l0.3-0.6
		c0.1-0.2,0.2-0.3,0.3-0.6l0.8-1.6c0.5-1.1,1-2.1,1.5-3.2l0.7-1.6l0.7-1.4c0.4-1,0.9-1.9,1.3-2.9c0.9-1.9,1.7-3.8,2.5-5.7
		c1-2.4,2-4.8,2.9-7.2c3.7,7.3,8,14.4,12.8,21.2c0.9,1.2,1.8,2.5,2.7,3.7c1,1.2,1.9,2.4,2.9,3.6c1.9,2.4,4,4.7,6.1,7.1
		c2.1,2.3,4.3,4.5,6.5,6.7c1.1,1.1,2.3,2.1,3.5,3.2l1.7,1.6l0.4,0.4c0.5,0.5-0.8-0.8,1.2,1.1l0.2,0.1l0.6,0.5
		c0.8,0.6,1.7,1.3,2.5,1.9c1.2,1,2.5,1.9,3.7,2.9c1.5,1.1,3,2.3,4.4,3.4c1.3,0.9,2.7,1.8,4,2.7c2.6,1.8,5.4,3.4,8.2,5.1
		c1.4,0.8,2.8,1.6,4.3,2.3c1.4,0.7,2.8,1.5,4.3,2.2c23.3,11.5,50,16.9,76.1,15.1c13-0.9,26-3.5,38.3-7.9
		c12.3-4.3,23.9-10.3,34.4-17.6c2.6-1.9,5.2-3.7,7.7-5.8c1.2-1,2.5-2,3.7-3l3.5-3.2c1.2-1,2.3-2.2,3.4-3.3c1.1-1.1,2.2-2.2,3.3-3.4
		l3.1-3.5l0.8-0.9l0.2-0.2c-0.5,0.5,0.9-1,0.8-0.9l0.3-0.3l1.1-1.4l2.2-2.9c1.1-1.4,2.1-2.8,3.2-4.2l0.8-1.1c0.3-0.4,0.5-0.7,0.7-1
		l1.3-1.9c0.8-1.3,1.7-2.6,2.5-3.9c1.6-2.7,3.2-5.3,4.6-8c0.7-1.4,1.4-2.7,2.1-4.1l1.9-4.1C1036.8,629.9,1040.1,606,1037.6,584z
		 M816.2,366.7c30.2-11.7,38.2-30.8,62.3-38.8c1-0.3,2-0.6,3-0.8c4.2,0.4,8.3,1.5,12.2,3.1c16.2,11.3,28.4,31.3,31.8,55.2
		c0.3,1.9,0.5,3.9,0.6,5.8c-2.9,9.1-12.6,22.6-44.9,18.1c-6.6-1.4-13.9-3.5-22.2-6.4c-10.6-3.8-21.2-6.2-31.5-7.5
		c-4.7-0.8-9.3-1.4-13.9-1.8C813.1,384,814,375,816.2,366.7z M887.7,504.1c-0.5,1.9-0.7,4-1,6.2l-0.5-0.1c0,0,0-1.1-0.1-3.2
		c0-0.2,0-0.4,0-0.6L887.7,504.1z M808.4,482.3c1.9-3.8,4.1-7.3,6.5-10.4l0.9-1.1l0.5-0.6c-0.1,0.1,0.2-0.2,0.2-0.2l0.1-0.1l0.1-0.1
		l0.2-0.2c0.6-0.6,1.2-1.3,1.8-1.9c0.6-0.6,1.4-1.3,2-2c0.3-0.3,0.7-0.7,1-1c0.3-0.3,0.7-0.6,1-0.9c2.7-2.4,5.5-4.4,8.3-6
		c1.4-0.8,2.8-1.6,4.2-2.2c1.4-0.7,2.8-1.2,4.1-1.8c5.3-2.1,10.2-2.9,14.2-3.3c4-0.4,7.1-0.1,9.2,0c2.1,0.2,3.2,0.4,3.2,0.4l0,0.5
		c-16.8,0.1-33.2,7.1-44.8,22.4c-20,26.4-12,66.2,18.8,80.5c32.9,15.2,72.9-11.5,66.7-48.6c-1.1-6.6-8.4-10.2-14.3-7.2
		c-0.6,0.3-1.1,0.6-1.6,1l2.8-4.3c1-0.4,2.1-0.6,3.2-0.7c3-0.3,6.4,0.6,9.3,2.8c1.4,1.1,2.7,2.6,3.7,4.4c0.2,0.5,0.4,0.9,0.6,1.4
		c0.2,0.5,0.3,1,0.5,1.5c0.2,0.8,0.4,1.6,0.6,2.4c0.4,1.4,0.6,3.2,0.8,5c0.1,0.9,0.1,1.8,0.2,2.7c0,0.5,0,0.9,0.1,1.4
		c0,0.5,0,0.9,0,1.4c0,3.7-0.5,7.6-1.6,11.5c-1,3.9-2.7,7.8-4.9,11.6c-4.3,7.5-10.9,14.3-19.2,19.1c-4.1,2.4-8.6,4.3-13.4,5.7
		c-1.2,0.3-2.4,0.6-3.6,0.9c-1.2,0.2-2.5,0.4-3.7,0.6c-1.3,0.1-2.5,0.2-3.8,0.4c-1.3,0-2.5,0.1-3.8,0.1c-0.3,0-0.5,0-0.8,0
		c0.2,1,0.7,2.2,1.9,3.5c0.6,0.7,1.5,1.3,2.5,1.9c1.1,0.6,2.3,1,3.7,1.4c1.4,0.4,2.9,0.6,4.4,0.8c1.6,0.1,3.2,0.2,4.8,0.1
		c1.6-0.1,3.2-0.3,4.9-0.6c0.4-0.1,0.9-0.2,1.3-0.2c0.4-0.1,0.8-0.2,1.2-0.2c0.8-0.2,1.6-0.4,2.3-0.6c3-0.9,5.5-2.1,7-3.7
		c0.8-0.8,1.2-1.8,1.5-2.7c0.3-0.9,0.3-1.9,0.3-2.6c0-0.8-0.1-1.4-0.2-1.8c-0.1-0.4-0.2-0.7-0.2-0.7s0.2,0.2,0.5,0.5
		c0.3,0.3,0.7,0.9,1.1,1.7c0.4,0.8,0.8,1.8,1,3.1c0.2,1.3,0,2.9-0.7,4.5c-0.6,1.6-1.8,3.1-3.1,4.4c-1.3,1.3-2.9,2.4-4.6,3.3
		c-0.8,0.5-1.7,0.9-2.6,1.3c-0.9,0.4-1.9,0.8-2.7,1.1c-1.9,0.7-3.9,1.2-6,1.6c-2.1,0.3-4.2,0.5-6.2,0.4c-2.1-0.1-4.1-0.4-6.1-0.9
		c-2-0.5-3.9-1.3-5.6-2.2c-1.7-0.9-3.3-2.1-4.6-3.5c-1.3-1.3-2.3-2.8-3-4.2c-0.7-1.4-1.1-2.7-1.3-3.8c-0.1-0.5-0.2-1.1-0.3-1.6
		c0-0.2,0-0.5-0.1-0.7c0-0.1,0-0.3,0-0.4c0,0,0,0,0,0c-1.8-0.3-3.5-0.8-5.3-1.3c-1.2-0.4-2.5-0.8-3.7-1.3l-1.8-0.7l-0.9-0.4
		l-0.4-0.2l-0.2-0.1c-0.1-0.1,0.2,0.1-0.4-0.2l-0.1,0l-1.5-0.7l-0.7-0.4c-0.3-0.1-0.5-0.2-0.8-0.4c-1.2-0.7-2.4-1.3-3.5-2.1
		c-4.3-2.8-8.3-6.1-11.8-9.9c-3.5-3.8-6.4-8-8.7-12.5c-2.3-4.5-4-9.2-5.1-13.9c-1.1-4.7-1.6-9.5-1.6-14.2
		C802.2,498.8,804.6,489.9,808.4,482.3z M584.3,614.3c-1.4,2.3-3.8,6.5-4.3,11c-0.3,3.3,0.7,6.1,1.4,9.2c0.7,3.8,1.3,8-0.6,11.6
		c-1.9,3.6-5.7,4.5-9.3,3c2.3-0.2,4.7-0.8,5.8-3.1c1.1-2.4,0.5-5.4-0.1-7.9c-1.3-5-3.2-10-2-15.2c1.3-5.5,3.7-10.8,6.9-15.5
		c1.2-1.7,2.4-3.5,3.9-5c0.5-0.5,0.9-1,1.4-1.4c0.3-0.3,1-1,1-1c-0.2,3-0.2,5.5,0.1,8.2C588.5,608.2,586.4,610.8,584.3,614.3z
		 M640.6,660.4c-2,4.9-4.2,9.7-6.6,14.1c-2.4,4.4-5.1,8.5-7.6,11.8c-0.5,0.7-1.1,1.4-1.6,2.1c0.3,1.4,0.6,2.8,0.9,4
		c0.2,0.7,0.4,1.4,0.6,2c0,0.1,0.1,0.3,0.1,0.4c0,0.1,0.1,0.2,0.1,0.4c0.1,0.3,0.2,0.6,0.3,0.8c0.5,1.1,0.9,2.1,1.3,2.8
		c0.4,0.8,0.7,1.4,0.9,1.8c0.2,0.3,0.3,0.5,0.3,0.5l0.1,0.1c0.4,0.6,0.2,1.5-0.5,1.9c-0.5,0.3-1.1,0.2-1.5-0.1c0,0-0.3-0.2-0.7-0.6
		c-0.4-0.4-1-0.9-1.6-1.6c-0.6-0.7-1.4-1.6-2.2-2.6c-0.2-0.3-0.4-0.5-0.6-0.9c-0.1-0.1-0.2-0.3-0.3-0.5c-0.1-0.2-0.2-0.3-0.3-0.5
		c-0.4-0.7-0.8-1.3-1.1-2.1c-1.5-3-2.6-6.6-3.5-10.6c-0.2-1-0.4-2-0.6-3c-0.1-0.5-0.2-1-0.3-1.5c-0.1-0.5-0.2-1-0.2-1.5
		c-0.3-2.1-0.6-4.2-0.8-6.3c-0.2-2.1-0.3-4.2-0.4-6.3c-0.1-2.1-0.1-4.2,0-6.1c0.1-4,0.3-7.7,0.7-10.8c0.3-3.2,0.8-5.8,1.1-7.6
		c0.3-1.8,0.5-2.8,0.5-2.8c0.5-2.7,3.1-4.5,5.8-4c2.7,0.5,4.5,3.1,4,5.8l0,0c0,0-0.2,1-0.5,2.8c-0.1,0.9-0.3,1.9-0.5,3.1
		c-0.2,1.2-0.4,2.6-0.6,4c-0.4,3-0.9,6.4-1.2,10.1c-0.4,3.7-0.5,7.7-0.6,11.6c0,2,0,4,0.1,5.9c0,1,0.1,1.9,0.1,2.9
		c0,0.5,0.1,1,0.1,1.5c2-2.8,3.9-5.9,5.8-9.2c2.2-4,4.4-8.6,6.4-13.6c1-2.5,3.9-3.8,6.4-2.8C641.8,657.3,641.2,658.8,640.6,660.4z
		 M716.6,320.1c0.8-0.4,1.9-0.9,3.4-1.4c0.8-0.3,1.6-0.6,2.5-0.9c0.9-0.3,1.9-0.6,3-0.9c1.1-0.3,2.3-0.6,3.5-0.9
		c0.6-0.1,1.3-0.3,1.9-0.4c0.7-0.1,1.3-0.2,2-0.3c1.4-0.3,2.8-0.4,4.4-0.6c1.5-0.1,3.1-0.3,4.7-0.3c3.2-0.1,6.7,0,10.2,0.4
		c3.6,0.4,7.2,1.1,10.9,2c1.8,0.5,3.7,1,5.5,1.6l2.7,1l1.3,0.5c0.4,0.2,0.9,0.4,1.4,0.6l2.7,1.2c0.9,0.4,1.7,0.9,2.6,1.3
		c1.2,0.6,2.4,1.3,3.5,1.9c-2.2,2.5-4.2,5.2-6.2,8c-0.8-0.6-1.5-1.2-2.3-1.7c-0.7-0.5-1.4-1-2.1-1.4l-2.1-1.3
		c-0.4-0.2-0.7-0.4-1.1-0.7l-1.2-0.6l-2.3-1.2c-1.6-0.7-3.1-1.5-4.7-2.1c-3.2-1.3-6.4-2.4-9.6-3.1c-3.2-0.8-6.3-1.4-9.4-1.6
		c-1.5-0.2-3-0.3-4.4-0.4c-1.4,0-2.8-0.1-4.2-0.1c-0.7,0-1.3,0-2,0c-0.6,0-1.3,0.1-1.9,0.1c-1.2,0-2.4,0.2-3.5,0.2
		c-1.1,0.1-2.1,0.2-3.1,0.4c-1,0.1-1.8,0.2-2.6,0.4c-1.6,0.2-2.8,0.5-3.6,0.7c-0.8,0.2-1.3,0.3-1.3,0.3S715.8,320.5,716.6,320.1z
		 M667.6,391.7c-0.6,0.9-0.9,1.5-0.9,1.5l0,0.1c-0.1,0.2-0.3,0.3-0.6,0.2c-0.2-0.1-0.3-0.3-0.3-0.5c0,0,0-0.2,0.1-0.5
		c0-0.2,0.1-0.6,0.3-0.9c-0.3-9.9,1.5-20,5.5-29.8c5.1-12.4,13.3-22.7,23.3-30.3c0,0,0,0,0,0s0.3-0.2,0.7-0.6
		c0.2-0.2,0.5-0.4,0.9-0.7c0.2-0.2,0.5-0.4,0.8-0.6c0.1-0.1,0.2-0.1,0.3-0.2l0,0c0.1,0,0.1-0.1,0.2-0.1c0.5-0.3,1.1-0.6,1.7-0.9
		c0.6-0.4,1.3-0.6,2.1-0.9c0.4-0.1,0.8-0.3,1.2-0.5c0.4-0.1,0.9-0.2,1.3-0.4c0.9-0.3,1.9-0.4,2.9-0.6c0.3,0,0.5-0.1,0.8-0.1
		c0.3,0,0.5,0,0.8,0c0.5,0,1.1,0,1.7,0c0.6,0,1.1,0.1,1.7,0.1c0.3,0,0.6,0.1,0.9,0.1c0.3,0.1,0.6,0.1,0.9,0.2
		c2.4,0.4,4.8,1.2,7.1,2.2c2.4,1,4.6,2.3,6.8,3.7c2.2,1.4,4.3,2.9,6.4,4.5c4.1,3.1,8.1,6.1,11.8,8.6c1.9,1.2,3.7,2.4,5.4,3.3
		c0.9,0.5,1.7,0.9,2.6,1.3c0.8,0.3,1.6,0.7,2.4,1c1.6,0.6,3,1,4.3,1.3c0.6,0.1,1.2,0.2,1.8,0.3c0.5,0.1,1,0.1,1.4,0.2
		c0.2,0,0.4,0.1,0.6,0.1c0.2,0,0.5,0,0.7,0c0.4,0,0.8,0,1.1,0c0,0,0,0,0.1,0c-1.2,3.2-2.2,6.5-3.1,9.8c-1.7,6.5-2.8,13.2-3.4,20
		c-0.2,2.8-0.3,5.7-0.3,8.6c-2.1-0.5-4.2-1-6.3-1.6c-1.3-0.3-2.5-0.7-3.8-1.1c-1.2-0.4-2.4-0.8-3.6-1.2l-0.9-0.3l-0.8-0.3
		c-0.5-0.2-1.1-0.3-1.7-0.5c-1.1-0.4-2.3-0.7-3.4-1c-4.6-1.2-9.2-2.2-13.8-2.9c-4.6-0.7-9.2-1.2-13.7-1.4c-2.2-0.1-4.4-0.2-6.6-0.1
		c-2.2,0-4.3,0.1-6.3,0.2c-4.1,0.3-8,0.6-11.5,1.3c-3.5,0.7-6.7,1.5-9.4,2.5c-2.7,1.1-4.9,2.1-6.6,3.4
		C669.4,389.5,668.2,390.7,667.6,391.7z M772.4,459.9c-1,0.5-2,0.9-3.1,1.4c-1.1,0.4-2.2,0.8-3.2,1.2c-1.1,0.4-2.2,0.8-3.3,1.2
		c-1.1,0.3-2.3,0.6-3.4,0.9c-1.2,0.3-2.3,0.7-3.5,0.8c-1.2,0.2-2.4,0.4-3.6,0.6c-4.8,0.8-9.8,1-14.7,1c-2.5-0.1-4.9-0.3-7.4-0.5
		c-2.4-0.4-4.9-0.7-7.2-1.2c-2.4-0.6-4.7-1.1-7-1.9c-1.1-0.4-2.2-0.8-3.3-1.2c-0.6-0.2-1.1-0.4-1.6-0.6l-0.8-0.3l-0.2-0.1l-0.3-0.1
		l-0.4-0.2c-0.5-0.2-1-0.5-1.5-0.7c-0.5-0.2-1-0.5-1.5-0.7c-1-0.5-2.1-1.1-3-1.6c-1.9-1.1-3.8-2.3-5.5-3.5c-3.4-2.5-6.4-5.1-8.9-7.8
		c-2.5-2.6-4.6-5.3-6.3-7.7c-1.7-2.4-2.9-4.7-3.9-6.5c-0.9-1.9-1.6-3.4-2-4.4c-0.4-1-0.6-1.6-0.6-1.6s0.4,0.4,1.1,1.3
		c0.7,0.8,1.8,2,3.2,3.5c0.7,0.7,1.5,1.6,2.3,2.4c0.4,0.4,0.9,0.9,1.3,1.3c0.5,0.4,1,0.9,1.5,1.4c2.1,1.9,4.4,3.9,7.1,5.9
		c2.7,2,5.8,4,9.1,5.9c1.7,0.9,3.4,1.9,5.2,2.7c0.4,0.2,0.9,0.4,1.3,0.6c0.4,0.2,0.9,0.4,1.3,0.6c0.4,0.2,0.9,0.4,1.4,0.6
		c0.5,0.2,1,0.4,1.5,0.6c1.8,0.7,3.9,1.4,5.9,2.1c2,0.6,4.1,1.1,6.2,1.7c2.1,0.4,4.3,0.8,6.4,1.2c1.1,0.1,2.2,0.2,3.3,0.3l1.6,0.1
		l0.8,0.1c0.3,0,0.6,0,0.8,0c4.4,0,8.8-0.3,13.1-1.1c1.1-0.2,2.1-0.4,3.2-0.6c1.1-0.2,2.1-0.6,3.1-0.8c1-0.3,2-0.6,3-0.9
		c1-0.3,2-0.7,2.9-1.1c1-0.4,1.9-0.7,2.9-1.1c0.9-0.4,1.8-0.9,2.7-1.3c0.9-0.4,1.8-0.8,2.6-1.3c0.8-0.5,1.7-1,2.5-1.5
		c0.2-0.1,0.3-0.2,0.5-0.3c1.5,2.7,3.1,5.3,4.8,7.8c-0.2,0.1-0.4,0.3-0.7,0.4c-0.9,0.5-1.9,1-2.8,1.6
		C774.4,459,773.4,459.4,772.4,459.9z"/>
</g>
<g>
	<path class="st1" d="M744.2,630.8l-1.9-34c-1.3-23.4-36.2-40-79.4-37.6c-40.3,2.2-71.5,19.9-74.6,41.3c-0.2,2.8-0.1,5.1,0.2,7.7
		c0,0-2.1,2.7-4.2,6.2c-1.4,2.3-3.8,6.5-4.3,11c-0.3,3.3,0.7,6.1,1.4,9.2c0.5,2.4,0.9,5.1,0.6,7.6l8.3-0.4
		c3.3,20.7,33.1,35.3,70.9,35.3c2.7,0,5.4-0.1,8.2-0.2C712.6,674.5,745.5,654.2,744.2,630.8z"/>
	<path class="st1" d="M561.1,635.9c-1.1-3.3-1.7-7.1-1.9-11.1c-0.3-6,0.3-12.8,2.2-20.2l-58.1,3c-3.5,0.2-5.8,3-6.6,8.5
		c-0.5,3.1-0.7,7-0.4,11.2c0.2,4.2,0.8,8.1,1.6,11.1c1.4,5.3,4,8,7.5,7.8l59.2-3C563.1,641,561.9,638.6,561.1,635.9z"/>
</g>
<g>
	<path class="st2" d="M739.2,631.1c-0.3-6.1-1.5-27.8-1.9-34c-1.1-20.3-34.3-35.1-74.1-32.9c-39.8,2.2-71.2,20.4-70.1,40.8
		c0,0.8,0.1,1.8,0.2,2.9l-4.8,0.2c0,0-2.1,2.7-4.2,6.2c-1.4,2.3-3.8,6.5-4.3,11c-0.3,3.3,0.7,6.1,1.4,9.2c0.2,0.8,0.3,1.7,0.4,2.6
		l11.1-0.6l0.5,0c0,0,0.1-0.1,0.1-0.2c0,0,0,0,0,0c0-0.1,0.1-0.1,0.1-0.1c0.6-0.9,1.4-2.7,1.9-4.4c1.2-3.5,1.8-7.4,1.8-7.4
		s0.6,3.8,0.7,7.7c0,2-0.1,4-0.5,5.7c-0.2,0.9-0.5,1.7-1.3,2.5c-0.3,0.3-0.7,0.5-1.1,0.7c3.2,19.3,35.4,32.9,73.9,30.8
		C708.9,669.6,740.3,651.4,739.2,631.1z"/>
</g>
<g>
	<path class="st2" d="M548.6,401.6l-21.7-3.1c-1.9-0.3-3.8-0.4-5.7-0.4v0.9c0,0,0,0,0,0l0-0.9c0,0,0,0,0,0
		c-25.1,0-47.3,23.1-51.6,53.8c-2.3,16,0.6,31.8,8.2,44.5c7.5,12.6,18.8,20.6,31.7,22.6l-2.8,19.6c0.4,0.1,0.7,0.2,1,0.4
		c2.8,1.2,5.2,2.7,8.5,2.7c0.3,0,0.7,0,1,0c0.1,0,0.2,0,0.4,0c0.2,0,0.5,0,0.7-0.1c0.1,0,0.3,0,0.4-0.1c0.2,0,0.4-0.1,0.6-0.1
		c0.2,0,0.3-0.1,0.5-0.1c0.2,0,0.4-0.1,0.6-0.2c0.2-0.1,0.3-0.1,0.5-0.2c0.2-0.1,0.3-0.1,0.5-0.2c0.2-0.1,0.3-0.1,0.5-0.2
		c0.2-0.1,0.3-0.2,0.5-0.2c0.2-0.1,0.4-0.2,0.5-0.3c0,0,0.1-0.1,0.1-0.1c0.5-0.3,0.9-0.6,1.3-0.9c0.1-0.1,0.2-0.2,0.3-0.3
		c0.2-0.2,0.4-0.3,0.5-0.5c0.1-0.1,0.2-0.2,0.3-0.3c0.2-0.2,0.3-0.4,0.5-0.6c0.1-0.1,0.2-0.2,0.3-0.4c0.2-0.2,0.3-0.4,0.5-0.7
		c0.1-0.1,0.2-0.3,0.3-0.4c0.2-0.2,0.3-0.5,0.4-0.8c0.1-0.1,0.1-0.3,0.2-0.4c0.1-0.3,0.3-0.6,0.4-0.9c0-0.1,0.1-0.2,0.1-0.3
		c0.3-0.8,0.6-1.7,0.9-2.6c0,0,0.5-1.6,0.7-4.3l0.7-4.7l1.2,0.2c1.9,0.3,3.8,0.4,5.7,0.4c25.1,0,47.3-23.1,51.6-53.8
		C593.6,435.5,575.5,405.4,548.6,401.6z M521.7,539.5L521.7,539.5C521.8,539.4,521.8,539.4,521.7,539.5z"/>
	<path class="st2" d="M513.6,563.9c-4.2-1-7.5-2.7-9.9-4.2l-4.1,29.3v0l-0.9,6.4c-0.6,4.1,3.6,8.1,9.4,8.9c5.8,0.8,10.9-1.9,11.5-6
		l4.8-33.8C520.4,565,516.7,564.6,513.6,563.9z"/>
</g>
<path class="st1" d="M726.1,597.7c-1-17.5-29-30.2-62.6-28.4c-33.5,1.8-60.1,17.6-59.1,35.1c0.5,8.6,7.4,16.3,19.4,21.7
	c10.1,4.5,23,6.9,36.6,6.9c2.2,0,4.3-0.1,6.5-0.2c16.1-0.9,31.1-4.9,42.2-11.4C720.5,614.8,726.6,606.4,726.1,597.7z"/>
<g>
	<path class="st1" d="M528.7,563.9c-1.5,0.4-3,0.6-4.4,0.7l-4.8,33.8c-0.5,3.6-4.5,6.1-9.4,6.1c-0.7,0-1.4,0-2.1-0.1
		c-5.8-0.8-10-4.8-9.4-8.9l0.9-6.4v0l4.1-29.3c0,0,0,0-0.1,0c-1.2-0.8-2.3-1.6-3.1-2.3c-0.5-0.4-1-0.8-1.4-1.2l-4.6,32.2l-0.9,6.4
		c-0.5,3.6,0.9,7.2,3.8,10c2.5,2.4,6,4,9.8,4.6c0.9,0.1,1.8,0.2,2.8,0.2c7.5,0,13.5-4.4,14.4-10.4l5-35.4
		C529.2,563.8,529,563.8,528.7,563.9z"/>
	<g>
		<path class="st1" d="M549.3,396.6l-21.7-3.1c-0.5-0.1-0.9-0.1-1.4-0.2l-5-0.3h0l-5,0.3c-25.5,2.8-47.2,26.7-51.6,57.8
			c-2.4,17.1,0.7,34.1,8.8,47.7c7.3,12.3,18,20.7,30.4,24l-2.1,15.2c1.6-0.2,3.3,0,5,0.5l2.8-19.6c-12.9-2-24.2-10-31.7-22.6
			c-7.5-12.6-10.4-28.4-8.2-44.5c4.3-30.6,26.5-53.8,51.6-53.8h0h0c1.9,0,3.8,0.1,5.7,0.4l21.7,3.1c26.9,3.8,45,33.9,40.3,67.1
			c-4.3,30.6-26.5,53.8-51.6,53.8c-1.9,0-3.8-0.1-5.7-0.4l-1.2-0.2l-0.7,4.7c0.1,0,0.2,0.1,0.4,0.1c1.1,0.2,3.2,0.5,4,0.7
			c0.3,0,0.5,0.1,0.8,0.1c0.8,0,1.6,0.1,2.4,0.1c27.6,0,51.9-25,56.6-58.1C598.9,433.5,579,400.8,549.3,396.6z"/>
	</g>
</g>
<path class="st1" d="M527.8,409c-0.8-0.2-1.6-0.3-2.3-0.4c-1.6-0.2-3.2-0.3-4.8-0.3h0c-21,0-39.6,19.3-43.2,44.8
	c-1.9,13.3,0.5,26.5,6.8,37c6.4,10.7,15.9,17.5,26.9,19c0.8,0.1,1.6,0.2,2.4,0.2c0.8,0.1,1.6,0.1,2.4,0.1c21,0,39.6-19.3,43.2-44.8
	C563,437.9,549.2,413.5,527.8,409z"/>
<ellipse transform="matrix(-0.9902 -0.14 0.14 -0.9902 1010.2419 994.7668)" class="st6" cx="540.1" cy="461.8" rx="47.5" ry="59"/>
<path class="st2" d="M859.6,570.9c0.6,0.7,1.5,1.3,2.5,1.9c1.1,0.6,2.3,1,3.7,1.4c1,0.3,2.2,0.5,3.4,0.6c0.1,0,0.1,0,0.2,0
	c-0.1,0,5.6,0,2.8,0.2c0.9,0,2,0,3.1,0c1.6-0.1,3.1-0.3,4.7-0.6c0.4-0.1,0.9-0.2,1.3-0.2c0.4-0.1,0.8-0.2,1.2-0.2
	c0.8-0.2,1.6-0.4,2.3-0.6c2.1-0.6,4-1.4,5.5-2.4c2.6-2,4.1-5,2.9-9.1l0,0l0,0v0l-0.8-5.7c-1.7,1.3-3.5,2.5-5.5,3.7
	c-4.1,2.4-8.6,4.3-13.4,5.7c-1.2,0.3-2.4,0.6-3.6,0.9c-1.2,0.2-2.5,0.4-3.7,0.6c-1.3,0.1-2.5,0.2-3.8,0.4c-1.3,0-2.5,0.1-3.8,0.1
	c-0.3,0-0.5,0-0.8,0C858,568.4,858.4,569.7,859.6,570.9z"/>
<g>
	<path class="st2" d="M559.2,624.8c-0.2-4.6,0.1-9.7,1.1-15.2l-56.7,2.9c-1.7,0.1-2.8,6.5-2.4,14.4c0.4,7.9,2.1,14.2,3.8,14.1
		l56.9-2.9c-0.3-0.7-0.6-1.5-0.8-2.3C560,632.6,559.4,628.8,559.2,624.8z"/>
</g>
<path class="st1" d="M1068.9,395c6.8,0,12.5,1.9,16.4,6.1c3.9,4,17.5,18.3,21.4,22.3c12.8,13.4,2,44.6-24.2,69.7
	c-18.1,17.4-38.9,27.3-54.2,27.3c-6.8,0-12.5-1.9-16.4-6.1c-3.9-4-17.5-18.3-21.4-22.3c-12.8-13.4-2-44.6,24.2-69.7
	C1032.8,404.9,1053.6,395,1068.9,395 M1068.9,390L1068.9,390c-17.1,0-39.2,11-57.7,28.7c-13.2,12.7-23.2,27.3-28,41.2
	c-5.2,15-3.9,27.6,3.6,35.5l21.4,22.3c4.8,5,11.7,7.6,20.1,7.6c17.1,0,39.2-11,57.7-28.7c13.2-12.7,23.2-27.3,28-41.2
	c5.2-15,3.9-27.6-3.6-35.5l-21.4-22.3C1084.2,392.6,1077.3,390,1068.9,390L1068.9,390z"/>
<g>
	<path class="st2" d="M176.4,935c0-11.4,9-20.4,20.4-20.4h51.9c58.3,0,98.5,40,98.5,92.2v0.5c0,52.2-40.3,92.7-98.5,92.7h-51.9
		c-11.4,0-20.4-9-20.4-20.4V935z M248.7,1063.1c33.4,0,55.9-22.5,55.9-55.4v-0.5c0-32.8-22.5-55.9-55.9-55.9h-31.5v111.8H248.7z"/>
	<path class="st2" d="M380.1,1139.4c-5.8-2.1-12.7-6.9-12.7-16.7c0-9.8,7.7-16.4,15.9-16.4c3.2,0,5,0.5,6.6,1.1
		c3.4,1.1,5.6,1.6,8.5,1.6c7.2,0,10.6-1.3,14.3-8.5l1.3-3.2L365.5,985c-1.1-2.6-2.1-6.6-2.1-9.3c0-11.4,8.7-19.3,19.9-19.3
		c10.1,0,15.9,5.6,19.3,15.1l30.7,82.6l29.7-82.4c3.2-8.5,9-15.4,19.3-15.4s19.1,7.9,19.1,18.5c0,3.2-1.1,7.7-1.9,9.5L450,1103.4
		c-11.9,28.9-23.8,39.7-47.9,39.7C393.1,1143.1,386.7,1141.8,380.1,1139.4z"/>
	<path class="st2" d="M521.3,976.5c0-11.1,9-20.1,20.1-20.1s20.1,9,20.1,20.1v1.6c9.3-11.9,21.2-22.8,41.6-22.8
		c30.5,0,48.2,20.1,48.2,52.7v73.4c0,11.1-9,20.1-20.1,20.1c-11.1,0-20.1-9-20.1-20.1v-60.7c0-19.1-9-28.9-24.4-28.9
		c-15.4,0-25.2,9.8-25.2,28.9v60.7c0,11.1-9,20.1-20.1,20.1s-20.1-9-20.1-20.1V976.5z"/>
	<path class="st2" d="M671.2,1059.2v-0.5c0-31,23.6-45.3,57.2-45.3c14.3,0,24.6,2.4,34.7,5.8v-2.4c0-16.7-10.3-26-30.5-26
		c-11.1,0-20.1,1.6-27.8,4c-2.4,0.8-4,1.1-5.8,1.1c-9.3,0-16.7-7.2-16.7-16.4c0-7.2,4.5-13.2,10.9-15.6c12.7-4.8,26.5-7.4,45.3-7.4
		c22,0,37.9,5.8,47.9,15.9c10.6,10.6,15.4,26.2,15.4,45.3v64.6c0,10.9-8.7,19.3-19.6,19.3c-11.7,0-19.3-8.2-19.3-16.7v-0.3
		c-9.8,10.9-23.3,18-42.9,18C693.1,1102.6,671.2,1087.2,671.2,1059.2z M763.6,1049.9v-7.2c-6.9-3.2-15.9-5.3-25.7-5.3
		c-17.2,0-27.8,6.9-27.8,19.6v0.5c0,10.9,9,17.2,22,17.2C750.9,1074.8,763.6,1064.5,763.6,1049.9z"/>
	<path class="st2" d="M829.8,976.5c0-11.1,9-20.1,20.1-20.1s20.1,9,20.1,20.1v1.6c9.3-11.9,21.5-22.8,41.8-22.8
		c18.5,0,32.6,8.2,40,22.5c12.4-14.6,27.3-22.5,46.6-22.5c29.9,0,47.9,18,47.9,52.2v73.9c0,11.1-9,20.1-20.1,20.1
		c-11.1,0-20.1-9-20.1-20.1v-60.7c0-19.1-8.5-28.9-23.6-28.9c-15.1,0-24.4,9.8-24.4,28.9v60.7c0,11.1-9,20.1-20.1,20.1
		c-11.1,0-20.1-9-20.1-20.1v-60.7c0-19.1-8.5-28.9-23.6-28.9c-15.1,0-24.4,9.8-24.4,28.9v60.7c0,11.1-9,20.1-20.1,20.1
		s-20.1-9-20.1-20.1V976.5z"/>
	<path class="st2" d="M1074.3,924.1c0-11.7,9.8-18.8,22.5-18.8c12.7,0,22.5,7.2,22.5,18.8v0.5c0,11.7-9.8,19.1-22.5,19.1
		c-12.7,0-22.5-7.4-22.5-19.1V924.1z M1076.7,976.5c0-11.1,9-20.1,20.1-20.1s20.1,9,20.1,20.1v104.9c0,11.1-9,20.1-20.1,20.1
		s-20.1-9-20.1-20.1V976.5z"/>
	<path class="st2" d="M1141.3,1029.8v-0.5c0-40.5,31-73.9,74.4-73.9c21.5,0,36.6,5.8,48.5,15.9c2.6,2.1,6.4,6.9,6.4,13.8
		c0,10.1-8.2,18-18.3,18c-5.3,0-9.3-2.1-11.7-4c-7.2-5.6-14.6-9-25.2-9c-20.1,0-34.4,17.7-34.4,38.7v0.5c0,21.7,14,39.2,36,39.2
		c10.6,0,18.8-3.7,26.5-9.8c2.1-1.6,6.1-3.7,10.9-3.7c9.5,0,17,7.7,17,17.2c0,5.3-2.4,9.5-5.8,12.7c-11.9,10.9-27,18.3-50.3,18.3
		C1172.5,1103.1,1141.3,1070.3,1141.3,1029.8z"/>
	<path class="st2" d="M545.9,1306.6c-1.3-1.1-2.6-2.9-2.6-5.3c0-3.7,3.2-6.9,6.9-6.9c1.9,0,3.4,0.8,4.5,1.6
		c18.5,16.7,37.1,24.1,62.5,24.1c27.8,0,46.9-15.6,46.9-36.8v-0.5c0-19.6-10.3-31-52.4-39.5c-44.5-9-62.5-24.1-62.5-52.2v-0.5
		c0-27.5,25.2-48.7,59.6-48.7c24.9,0,42.1,6.4,59.1,19.1c1.3,1.1,2.9,2.9,2.9,5.6c0,3.7-3.2,6.9-6.9,6.9c-1.6,0-3.2-0.5-4.5-1.6
		c-16.2-12.4-32.3-17.5-51.1-17.5c-27.3,0-45.3,15.6-45.3,35v0.5c0,19.6,10.1,31.5,54,40.5c42.9,8.7,60.9,24.1,60.9,51.1v0.5
		c0,29.9-25.7,50.6-61.4,50.6C588.5,1332.6,566.8,1323.9,545.9,1306.6z"/>
	<path class="st2" d="M713.5,1200.4c0-4,2.6-6.6,6.4-6.6s6.6,2.6,6.6,6.6v24.6c11.7-17.7,28.9-33.4,55.6-33.4
		c32.6,0,65.7,26.2,65.7,70.2v0.5c0,44-33.1,70.7-65.7,70.7c-27,0-44.5-15.4-55.6-32.3v65.9c0,4-2.6,6.6-6.4,6.6
		c-3.7,0-6.6-2.6-6.6-6.6V1200.4z M833.8,1263v-0.5c0-35.5-24.6-58.3-53-58.3c-28.1,0-55.1,23.6-55.1,58v0.5c0,34.7,27,58,55.1,58
		C810.2,1320.7,833.8,1299.2,833.8,1263z"/>
	<path class="st2" d="M938.7,1333.1c-35.5,0-66.2-28.3-66.2-70.4v-0.5c0-39.2,27.5-70.4,64.1-70.4c37.9,0,62,31.3,62,69.9
		c0,3.2-3.2,6.1-6.4,6.1H886.2c2.4,33.6,26.5,53.2,53,53.2c19.3,0,32.8-7.9,43.7-18.5c1.1-1.1,2.4-1.9,4.2-1.9
		c3.4,0,6.4,2.6,6.4,6.1c0,1.3-0.5,2.9-2.1,4.5C978.1,1324.4,963,1333.1,938.7,1333.1z M984.5,1256.1c-1.9-27.3-17.5-52.4-48.5-52.4
		c-26.8,0-47.4,22.5-49.8,52.4H984.5z"/>
	<path class="st2" d="M1020.5,1263v-0.5c0-37.9,30.2-70.7,68.9-70.7c23.3,0,38.7,10.1,50.9,21.5c1.1,1.1,1.9,2.9,1.9,4.8
		c0,3.7-2.9,6.6-6.6,6.6c-1.6,0-3.4-0.5-4.5-1.6c-10.9-10.3-23.6-19.1-41.8-19.1c-30.7,0-54.6,25.7-54.6,58v0.5
		c0,32.6,24.6,58.5,55.6,58.5c17.5,0,31.5-8.5,42.4-19.3c1.1-1.1,2.4-2.1,4.2-2.1c3.2,0,6.4,3.2,6.4,6.4c0,1.3-0.5,2.9-1.6,4
		c-13.5,13.8-29.1,23.3-52.2,23.3C1050.4,1333.1,1020.5,1300.8,1020.5,1263z"/>
	<path class="st2" d="M1165.7,1315.1c-1.1-0.8-2.4-2.9-2.4-5c0-3.4,2.9-6.4,6.4-6.4c1.6,0,3.2,0.5,4.2,1.3
		c14,10.1,28.9,15.4,45,15.4c18.3,0,32.6-10.1,32.6-25.7v-0.5c0-15.9-17-21.7-35.8-27c-22-6.4-46.4-13-46.4-37.1v-0.5
		c0-21.7,18.3-37.3,44.5-37.3c14.6,0,30.7,4.8,43.7,12.2c1.6,1.1,3.4,2.9,3.4,5.8c0,3.4-2.9,6.4-6.4,6.4c-1.6,0-2.9-0.5-3.7-1.1
		c-11.7-6.9-24.6-11.1-37.6-11.1c-18.5,0-30.7,10.1-30.7,23.6v0.5c0,15.1,18.3,20.7,37.6,26.2c21.7,6.1,44.5,14,44.5,37.9v0.5
		c0,24.1-20.7,39.5-46.6,39.5C1199.8,1332.6,1179.4,1325.5,1165.7,1315.1z"/>
</g>
<g>
	<path class="st7" d="M493,430.5c-4.4,6.6-7.5,14.6-8.7,23.5c-3.6,25.5,9.5,48.6,29.5,52.9c5.8,0.4,11.4-0.8,16.6-3.3
		C511.8,487.8,497.9,461.5,493,430.5z"/>
	<g>
		<path class="st8" d="M543.4,488.3l2.7,2.3c5.4-7.1,9.3-16.2,10.8-26.4c3.6-25.5-9.5-48.6-29.5-52.9c-5.7-0.4-11.4,0.8-16.6,3.3
			l2,12.8C516.9,453.1,528,475.3,543.4,488.3z"/>
		<path class="st0" d="M543.4,488.3c-15.4-13-26.5-35.2-30.6-60.9l-2-12.8c-6.9,3.3-13,8.8-17.7,15.9c4.9,31,18.8,57.3,37.5,73.1
			c5.9-2.8,11.2-7.3,15.6-13L543.4,488.3z"/>
	</g>
</g>
<g>
	<path class="st9" d="M606.1,606.8c3.3,15.4,29.5,26.3,60.6,24.6c-4.7-20.8-13.3-38.5-23.6-52.7C622.2,584,607.4,594.8,606.1,606.8z
		"/>
	<path class="st9" d="M724.7,600.3c-3.3-15.3-29-26.1-59.7-24.7c9.4,15,17.1,32.7,21.5,53C708,623.6,723.4,612.6,724.7,600.3z"/>
	<path class="st10" d="M686.5,628.6c-4.4-20.3-12.1-38-21.5-53c-0.4,0-0.8,0-1.2,0c-7.4,0.4-14.4,1.5-20.8,3.1
		c10.3,14.2,18.9,31.8,23.6,52.7c0.1,0,0.2,0,0.2,0C673.8,631.1,680.4,630.1,686.5,628.6z"/>
</g>
<path class="st11" d="M611.9,606.5c0.9-14.1,24.2-25.8,53-26.7c10.1-0.3,19.7,0.7,28,2.8c-1.8,0-3.8-0.1-6-0.1c-2.9,0-6,0.1-9.3,0.4
	c-1.7,0.1-3.4,0.2-5.1,0.4c-0.9,0.1-1.8,0.2-2.6,0.3c-0.9,0.1-1.7,0.2-2.6,0.3c-0.5,0.1-1.1,0.1-1.6,0.2l-0.2,0l-0.1,0
	c0.4,0,0.1,0,0.2,0l-0.1,0l-0.3,0.1l-0.7,0.1c-0.5,0.1-0.9,0.1-1.4,0.2c-0.4,0.1-0.9,0.2-1.4,0.2c-1.8,0.3-3.6,0.7-5.4,1.1
	c-1.8,0.4-3.6,0.8-5.3,1.3c-0.9,0.2-1.7,0.5-2.6,0.8c-0.9,0.3-1.7,0.5-2.6,0.8c-3.4,1.1-6.6,2.4-9.5,3.8c-2.9,1.4-5.5,3-7.7,4.6
	c-0.3,0.2-0.5,0.4-0.8,0.6c-0.3,0.2-0.5,0.4-0.7,0.6l-0.7,0.6l-0.7,0.6c-0.9,0.9-1.6,1.7-2.3,2.6c-0.7,0.9-1.2,1.8-1.7,2.7
	c-0.1,0.2-0.2,0.4-0.3,0.6l-0.2,0.3c0,0.1-0.1,0.1-0.1,0.2l-0.1,0.3c-0.1,0.3-0.2,0.7-0.2,1l0,0.1l0,0c0-0.1,0,0.2,0-0.2l0,0l0,0.2
	l-0.1,0.4c-0.2,0.5-0.2,0.9-0.3,1.4c-0.1,0.5-0.1,0.9-0.1,1.4c-0.1,0.9,0,1.9,0.2,2.8c0.3,1.8,0.9,3.6,1.8,5.2
	c0.3,0.6,0.6,1.1,0.9,1.6C616.8,616.4,612.8,611.7,611.9,606.5z"/>
<path class="st11" d="M669.9,390.4"/>
<path class="st11" d="M671.8,361.9c5.1-12.4,13.3-22.7,23.3-30.3c0,0,0.3-0.1,0.9-0.2c0.6-0.1,1.4-0.4,2.5-0.5
	c1.1-0.2,2.4-0.4,3.9-0.5c0.7-0.1,1.5-0.1,2.3-0.1c0.8-0.1,1.7,0.1,2.5,0.1c0.2,0,0.4,0,0.7,0c0.2,0,0.4,0.1,0.7,0.1
	c0.4,0.1,0.9,0.2,1.3,0.2c0.4,0.1,0.9,0.2,1.4,0.4c0.2,0.1,0.5,0.1,0.7,0.2l0.7,0.2c1.9,0.6,3.7,1.5,5.6,2.6
	c1.9,1.1,3.7,2.5,5.6,3.9c1.8,1.5,3.7,3.1,5.6,4.8c1.9,1.7,3.8,3.4,5.6,5.1c1.9,1.7,3.8,3.3,5.8,4.9c2,1.5,4,2.9,6,4.2
	c0.9,0.5,1.8,1,2.7,1.5l0.3,0.5l-14.1,16.7c-8.2-1.7-16.5-2.4-24.4-2.3c-9.6,0.2-18.6,1.6-25.9,4c-3.7,1.2-6.9,2.6-9.7,4.2
	c-2.7,1.6-4.9,3.3-6.5,5c-1.6,1.7-2.4,3.3-2.9,4.5c-0.1,0.2-0.1,0.3-0.2,0.4C666,381.7,667.8,371.6,671.8,361.9z"/>
<path d="M763.2,362.8C763.2,362.8,763.2,362.8,763.2,362.8c-0.7-0.1-1.5-0.2-2.3-0.3c-0.8-0.1-1.6-0.3-2.4-0.5
	c-1.7-0.4-3.6-1-5.6-1.9c-1-0.4-2-0.9-3-1.4c-0.6-0.3-1.1-0.6-1.7-0.9c0,0.2,0.1,0.5,0.1,0.7c0,3.9-3.1,7-7,7
	c-2.3,0-4.3-1.1-5.5-2.7c-1.8,3.8-3,7.9-3.6,12.3c3,0.5,6,1.1,9,1.9c2.5,0.6,5,1.4,7.4,2.2c2.4,0.8,4.8,1.7,7.2,2.4
	c1.4,0.4,2.8,0.8,4.2,1.2C760.4,376,761.5,369.3,763.2,362.8z"/>
<g>
	<path class="st1" d="M863.8,527.8l0.4-2.4c-0.6,0.5-1,1.3-1,2.2C863.4,527.8,863.6,527.8,863.8,527.8L863.8,527.8L863.8,527.8z"/>
</g>
<path class="st1" d="M952.5,381.4L952.5,381.4c-7-49.2-42.9-86.3-83.7-86.3c-3.1,0-6.3,0.2-9.3,0.7l-33.2,4.7
	c-21.5,3-40.2,16.2-52.5,37c-12.1,20.3-16.7,45.5-13.1,71.1c6.9,48.8,42.4,85.7,82.7,86.3l2.6,18.1l0,0c1.2,8,5.3,15.3,13.2,18.6
	c0.7,0.3,1.5,0.6,2.3,0.8c0.8,0.2,1.7,0.4,2.5,0.4c1.3,0.1,3.4,0.2,4.5,0.1c1.6-0.2,0,0,0,0c10.7-0.8,20.2-9.5,22.9-20.2l0,0
	l-3.3-23.4c21-3.3,39.2-16.4,51.4-36.8C951.5,432.3,956.2,407,952.5,381.4z"/>
<g>
	<path class="st2" d="M947.6,382.1c-6.6-46.8-40.5-82-78.7-82c-2.9,0-5.8,0.2-8.6,0.6l-33.2,4.7c-20,2.8-37.3,15.1-48.9,34.6
		c-11.5,19.3-15.9,43.4-12.4,67.9c6.6,46.8,40.5,82,78.7,82c1.1,0,2.2,0,3.4-0.1l3,21.1c0,0,0,0.1,0,0c1.4,9.1,4.1,13.5,10.4,16.1
		c0.9,0.4,1.8,0.7,2.7,0.9c-0.1,0,0,0,2.1,0.2c9.5,0.4,18-6.4,20.3-15.5l-3.9-27.4l3.8-0.5c20-2.8,37.3-15.1,48.9-34.6
		C946.6,430.7,951,406.6,947.6,382.1z"/>
	<path class="st1" d="M952.5,381.4L952.5,381.4c-7-49.2-42.9-86.3-83.7-86.3c-3.1,0-6.3,0.2-9.3,0.7l-33.2,4.7
		c-21.5,3-40.2,16.2-52.5,37c-12.1,20.3-16.7,45.5-13.1,71.1c7,49.2,42.9,86.3,83.8,86.3c6.1,0,12-2,17.2-5.6l2.2-1.5l-10.8,1.5
		c-2.9,0.4-5.8,0.6-8.6,0.6c-38.3,0-72.1-35.3-78.7-82c-3.5-24.5,1-48.6,12.4-67.9c11.6-19.5,29-31.8,48.9-34.6l33.2-4.7
		c2.9-0.4,5.8-0.6,8.6-0.6c38.3,0,72.1,35.3,78.7,82c3.5,24.5-1,48.6-12.4,67.9c-4.7,7.9-10.4,14.6-16.8,20
		c8.7-3.8,16.2-9.3,21.1-17.5C951.5,432.3,956.2,407,952.5,381.4z"/>
	<path class="st11" d="M925.4,385.3c-5.5-39-34.6-67.4-65.8-65.2c-30.7,6.5-50.7,41.9-45.2,80.9c5.5,39,34.6,67.4,65.8,65.2
		C910.9,459.7,930.9,424.3,925.4,385.3z"/>
	<path class="st1" d="M935.4,383.9c-5.5-38.9-33.7-68.2-65.7-68.2c-2.4,0-4.9,0.2-7.3,0.5c-1.1,0.2-2.3,0.4-3.5,0.6
		c-32.6,6.9-53.6,44.1-47.8,84.7c5.5,38.9,33.7,68.2,65.7,68.2c1.2,0,2.4,0,3.7-0.1c1.2-0.1,2.4-0.2,3.6-0.4
		c16.7-2.4,31.3-12.6,41-28.9C934.6,424.2,938.2,404.2,935.4,383.9z M869.7,319c0.5,0,0.9,0,1.4,0c-0.6,0-1.2,0-1.9,0
		C869.3,319,869.5,319,869.7,319z M880.2,466.2c0.6,0,1.1-0.1,1.7-0.1C881.3,466.1,880.8,466.1,880.2,466.2
		c-1.1,0.1-2.3,0.1-3.4,0.1c-29.9,0-57.1-27.7-62.4-65.3c-5.5-39,14.5-74.4,45.2-80.9c31.2-2.2,60.3,26.2,65.8,65.2
		C930.9,424.3,910.9,459.7,880.2,466.2z"/>
</g>
<g>
	<path class="st11" d="M944.5,392.4"/>
</g>
<g>
	<g>
		<g>
			<path class="st8" d="M921.4,368.6c0.4,1.1,0.7,2.1,1,3.2C922.1,370.7,921.8,369.7,921.4,368.6z"/>
		</g>
		<g>
			<path class="st8" d="M919.8,364.3c0.5,1.2,1,2.5,1.4,3.8C920.8,366.8,920.3,365.5,919.8,364.3z"/>
		</g>
		<g>
			<path class="st8" d="M925.8,388.3c0.1,0.9,0.2,1.8,0.3,2.8C925.9,390.1,925.9,389.2,925.8,388.3z"/>
		</g>
		<g>
			<path class="st8" d="M922.8,373.1c0.3,0.9,0.5,1.8,0.7,2.7C923.3,374.9,923.1,374,922.8,373.1z"/>
		</g>
		<g>
			<path class="st8" d="M918.3,360.6c0.5,1,0.9,2,1.3,3.1C919.2,362.7,918.7,361.6,918.3,360.6z"/>
		</g>
		<g>
			<path class="st8" d="M923.9,377.1c0.2,0.9,0.4,1.9,0.6,2.8C924.3,379,924.1,378.1,923.9,377.1z"/>
		</g>
		<g>
			<path class="st8" d="M904.9,340.1c-2.6-2.9-5.4-5.5-8.3-7.8C899.5,334.6,902.3,337.2,904.9,340.1z"/>
		</g>
		<g>
			<path class="st8" d="M924.7,381.2c0.3,1.4,0.5,2.7,0.7,4.1C925.2,383.9,925,382.5,924.7,381.2z"/>
		</g>
		<g>
			<path class="st8" d="M916.5,357c0.5,0.9,0.9,1.8,1.3,2.7C917.4,358.8,917,357.9,916.5,357z"/>
		</g>
		<g>
			<path class="st8" d="M893.6,330.1c1,0.7,2,1.4,3,2.2C895.6,331.5,894.6,330.8,893.6,330.1z"/>
		</g>
		<g>
			<g>
				<path class="st8" d="M813.7,393.4C813.7,393.4,813.7,393.4,813.7,393.4c0,0.3,0,0.5,0,0.8C813.7,393.9,813.7,393.6,813.7,393.4z
					"/>
			</g>
			<g>
				<path class="st8" d="M926,391c-2.6,8.1-10.5,19.6-34.6,18.9c3.1,0.7,6,1.1,8.7,1.2c1.6,0.1,3.1,0,4.5-0.1
					c1.4-0.2,2.6-0.4,3.7-0.7c2.2-0.6,3.8-1.5,4.8-2.2c0.5-0.3,0.9-0.7,1.2-0.9c0.3-0.2,0.4-0.3,0.4-0.3c0.2-0.2,0.5-0.1,0.7,0.1
					c0.2,0.2,0.1,0.5,0,0.7c0,0-0.1,0.1-0.3,0.4c-0.2,0.2-0.5,0.6-1.1,1.1c-1,0.9-2.6,2.2-5,3.2c-1.2,0.5-2.5,0.9-4,1.3
					c-1.5,0.3-3.1,0.6-4.9,0.7c-3.5,0.3-7.5,0.1-11.7-0.4c-4.2-0.5-8.7-1.4-13.4-2.5c-4.7-1.1-9.6-2.5-14.6-4
					c-2.5-0.8-5-1.5-7.5-2.3c-2.4-0.7-5-1.4-7.6-2c-5.1-1.2-10.5-2.1-15.8-2.6c-5.1-0.5-10.3-0.8-15.3-0.9c0.1,0.5,0.1,1,0.2,1.4
					c5.5,39,34.6,67.4,65.8,65.2C909.3,460,928.9,427.7,926,391z"/>
			</g>
			<g>
				<path class="st8" d="M814.2,399.2c-0.2-1.4-0.3-2.7-0.4-4.1C813.9,396.5,814,397.9,814.2,399.2z"/>
			</g>
		</g>
		<g>
			<g>
				<path class="st8" d="M818.8,358.2c0.8-0.5,1.7-1,2.6-1.5c1.7-1.1,3.5-2.3,5.3-3.4c1.7-1.3,3.5-2.5,5.3-4
					c3.5-2.8,7.1-5.9,10.9-9.1c3.8-3.2,7.8-6.5,12.3-9.5c4.5-2.9,9.4-5.5,14.5-7.3l0.9-0.4l0.2-0.1l0.5-0.1l0.4-0.1l1.8-0.5
					c0.3-0.1,0.7-0.2,1-0.2l1.1-0.2c0.1,0,0.1,0,0.2,0c3,0.8,6,1.9,8.9,3.2c-7.9-3.7-16.4-5.5-25.1-4.8c-21.3,4.5-37.5,23-43.5,46.9
					C816.8,364,817.8,361,818.8,358.2z"/>
			</g>
		</g>
		<g>
			<path class="st8" d="M914.4,353.2c0.6,1,1.1,2,1.7,3C915.6,355.2,915,354.2,914.4,353.2z"/>
		</g>
		<g>
			<path class="st8" d="M909.9,346.3c1.5,2.1,3,4.3,4.3,6.6C912.9,350.6,911.5,348.4,909.9,346.3z"/>
		</g>
		<g>
			<path class="st8" d="M907.6,343.2c0.7,0.9,1.5,1.9,2.2,2.8C909,345.1,908.3,344.2,907.6,343.2z"/>
		</g>
		<g>
			<path class="st8" d="M904.9,340.1c0.8,0.9,1.6,1.8,2.4,2.8C906.5,342,905.7,341,904.9,340.1z"/>
		</g>
	</g>
	<g>
		<g>
			<path class="st12" d="M896.6,335.5c-3.5-1.4-7.3-2.4-11.2-2.6c-1.9-0.1-3.9-0.1-5.9,0.2c-0.5,0-0.9,0.2-1.4,0.2l-0.7,0.1
				c-0.2,0-0.4,0.1-0.7,0.2l-1.8,0.5l-0.4,0.1l0,0l-0.2,0.1l-0.8,0.3c-1,0.4-2.1,0.8-3.1,1.2c-1,0.4-2,1-3,1.4l-1.5,0.7
				c-0.5,0.2-1,0.6-1.5,0.8c-1,0.6-2,1.1-3,1.7c-3.9,2.5-7.7,5.4-11.5,8.4c-0.7,0.6-1.5,1.2-2.2,1.7c3.2,2,5.4,5.5,5.4,9.6
				c0,6.2-5,11.2-11.2,11.2c-2,0-3.8-0.5-5.4-1.4c-0.1,1.4-0.2,2.9-0.2,4.3c0,6.7,1.4,13.2,4,18.9c2.4,0.6,4.8,1.2,7.2,1.9
				c2.7,0.8,5.3,1.6,8,2.6c0.6,0.2,1.3,0.5,1.9,0.7l1,0.4l0.9,0.4c1.2,0.5,2.4,1,3.6,1.4c2.4,0.9,4.8,1.8,7.1,2.7
				c2.3,0.9,4.6,1.7,6.8,2.5c4.4,1.5,8.7,2.8,12.6,3.8c3.9,1,7.6,1.5,10.8,1.7c1.6,0.1,3.1,0,4.5-0.1c1.4-0.2,2.6-0.4,3.7-0.7
				c2.2-0.6,3.8-1.5,4.8-2.2c0.5-0.3,0.9-0.7,1.2-0.9c0.3-0.2,0.4-0.3,0.4-0.3c0.1-0.1,0.3-0.1,0.4-0.1c4.7-4.8,9.6-10.3,10.9-15.8
				c-0.1-1.5-0.4-4.3-0.6-5.8c-2.6-18.5-10.5-34.6-21.4-46.2C901.7,337.8,899.2,336.6,896.6,335.5z"/>
		</g>
	</g>
	<g>
		<path class="st0" d="M875.8,321.6c-0.1,0-0.1,0-0.2,0l-1.1,0.2c-0.4,0.1-0.8,0.2-1,0.2l-1.8,0.5l-0.4,0.1l-0.5,0.1l-0.2,0.1
			l-0.9,0.4c-5.1,1.8-10,4.4-14.5,7.3c-4.4,3-8.5,6.3-12.3,9.5c-3.8,3.2-7.3,6.3-10.9,9.1c-1.8,1.4-3.6,2.7-5.3,4
			c-1.8,1.2-3.5,2.4-5.3,3.4c-0.9,0.5-1.7,1-2.6,1.5c-1.5,3.8-2.6,7.8-3.5,12c1.7-0.6,3.4-1.3,5.1-2c1.9-0.9,3.8-1.9,5.9-2.9
			c2-1.1,3.9-2.3,6-3.5c1.9-1.3,4-2.6,6-4c4-2.8,7.8-5.8,11.7-8.9c3.8-3,7.6-5.9,11.5-8.4c1-0.6,2-1.1,3-1.7c0.5-0.3,1-0.6,1.5-0.8
			l1.5-0.7c1-0.5,2-1,3-1.4c1-0.4,2.1-0.8,3.1-1.2l0.8-0.3l0.2-0.1l0,0l0.4-0.1l1.8-0.5c0.3-0.1,0.5-0.1,0.7-0.2l0.7-0.1
			c0.4-0.1,0.8-0.2,1.4-0.2c2-0.3,3.9-0.3,5.9-0.2c3.9,0.3,7.7,1.2,11.2,2.6c2.6,1.1,5.1,2.3,7.4,3.6
			C895.9,330.5,886.2,324.4,875.8,321.6z"/>
	</g>
	<g>
		<path class="st0" d="M914,409.1c0.5-0.5,0.8-0.8,1.1-1.1c0.2-0.2,0.3-0.4,0.3-0.4c0.2-0.2,0.2-0.5,0-0.7c-0.2-0.2-0.5-0.2-0.7-0.1
			c0,0-0.1,0.1-0.4,0.3c-0.3,0.2-0.6,0.6-1.2,0.9c-1,0.7-2.6,1.6-4.8,2.2c-1.1,0.3-2.4,0.6-3.7,0.7c-1.4,0.1-2.9,0.2-4.5,0.1
			c-3.2-0.1-6.9-0.7-10.8-1.7c-3.9-1-8.2-2.3-12.6-3.8c-2.2-0.8-4.5-1.6-6.8-2.5c-2.3-0.9-4.7-1.8-7.1-2.7c-1.2-0.5-2.4-1-3.6-1.4
			l-0.9-0.4l-1-0.4c-0.6-0.2-1.3-0.5-1.9-0.7c-2.6-0.9-5.3-1.8-8-2.6c-5.4-1.6-10.9-2.9-16.6-4c-5.6-1-11.3-1.7-17-1.9
			c-0.1,0-0.3,0-0.4,0c0,3.4,0.3,6.9,0.7,10.4c5.1,0.1,10.2,0.3,15.3,0.9c5.3,0.6,10.6,1.4,15.8,2.6c2.6,0.6,5.1,1.3,7.6,2
			c2.5,0.8,5.1,1.5,7.5,2.3c5,1.5,9.9,2.9,14.6,4c4.7,1.1,9.2,2,13.4,2.5c4.2,0.5,8.2,0.7,11.7,0.4c1.8-0.1,3.4-0.4,4.9-0.7
			c1.5-0.4,2.8-0.8,4-1.3C911.4,411.2,913,410,914,409.1z"/>
	</g>
</g>
<path class="st11" d="M879.5,461.2c28.1-6.2,46-39.2,40.9-75.2c-1.8-12.7-6.2-24.2-12.4-33.7c0.5,2.2,1.1,4.7,1.6,7.4
	c0.6,3.6,1.2,7.5,1.5,11.7c0.2,2.1,0.3,4.3,0.4,6.5c0,1.1,0,2.2,0.1,3.4c0,1.1,0,2.2-0.1,3.3c0,0.7,0,1.4,0,2l0,0.3l0,0.1
	c-0.1-0.5,0-0.1,0-0.2l0,0.1l0,0.4l0,0.9c0,0.6-0.1,1.2-0.1,1.8c-0.1,0.6-0.1,1.2-0.2,1.8c-0.2,2.4-0.5,4.7-0.8,7.1
	c-0.4,2.4-0.8,4.7-1.4,7.1c-0.2,1.2-0.6,2.3-0.9,3.5c-0.3,1.2-0.6,2.3-1,3.5c-1.5,4.6-3.3,9-5.4,13.1c-2.1,4.1-4.6,7.9-7.3,11.2
	c-0.3,0.4-0.7,0.8-1.1,1.2c-0.4,0.4-0.7,0.8-1.1,1.1l-1.1,1.1l-1.1,1.1c-1.5,1.4-3.1,2.6-4.7,3.8c-1.6,1.2-3.3,2.1-5,3.1
	c-0.4,0.2-0.7,0.4-1.1,0.6l-0.5,0.3c-0.1,0.1-0.1,0.1-0.3,0.2l-0.5,0.2c-0.7,0.2-1.3,0.4-2,0.6l-0.2,0.1l-0.1,0
	c0.2,0-0.5,0.1,0.4-0.1l-0.1,0l-0.3,0.1l-0.7,0.3c-0.9,0.4-1.8,0.6-2.8,0.9c-0.9,0.2-1.9,0.4-2.8,0.7c-1.9,0.4-3.8,0.6-5.7,0.8
	c-3.8,0.3-7.5,0.1-10.9-0.3c-1.2-0.2-2.3-0.3-3.4-0.5C858.4,458.6,868.8,461.9,879.5,461.2z"/>
<path class="st11" d="M527,416.1c17.7,3.9,29.1,24.7,25.8,47.5c-1.1,8-3.9,15.2-7.8,21.2c0.3-1.4,0.7-3,1-4.7c0.4-2.2,0.8-4.7,1-7.4
	c0.1-1.3,0.2-2.7,0.2-4.1c0-0.7,0-1.4,0-2.1c0-0.7,0-1.4,0-2.1c0-0.4,0-0.9,0-1.3l0-0.2l0,0c0,0.3,0,0.1,0,0.1l0-0.1l0-0.3l0-0.6
	c0-0.4,0-0.7-0.1-1.1c0-0.4-0.1-0.7-0.1-1.1c-0.2-1.5-0.3-3-0.5-4.5c-0.3-1.5-0.5-3-0.9-4.5c-0.2-0.7-0.4-1.5-0.6-2.2
	c-0.2-0.7-0.4-1.5-0.6-2.2c-0.9-2.9-2.1-5.7-3.4-8.3c-1.3-2.6-2.9-5-4.6-7c-0.2-0.3-0.4-0.5-0.7-0.8c-0.2-0.2-0.4-0.5-0.7-0.7
	l-0.7-0.7l-0.7-0.7c-0.9-0.9-1.9-1.7-2.9-2.4c-1-0.7-2.1-1.3-3.2-1.9c-0.2-0.1-0.5-0.3-0.7-0.4l-0.3-0.2c-0.1,0-0.1-0.1-0.2-0.1
	l-0.3-0.1c-0.4-0.1-0.8-0.3-1.2-0.4l-0.2-0.1l0,0c0.1,0-0.3-0.1,0.2,0l-0.1,0l-0.2-0.1l-0.4-0.2c-0.6-0.2-1.2-0.4-1.8-0.6
	c-0.6-0.1-1.2-0.3-1.8-0.4c-1.2-0.3-2.4-0.4-3.6-0.5c-2.4-0.2-4.7-0.1-6.9,0.2c-0.7,0.1-1.4,0.2-2.1,0.3
	C513.7,417.8,520.2,415.7,527,416.1z"/>
</svg>
